<svg version="1.0" xmlns="http://www.w3.org/2000/svg"
 width="52px" height="52px" viewBox="0 0 513.000000 512.000000"
 preserveAspectRatio="xMidYMid meet">

<g transform="translate(0.000000,512.000000) scale(0.100000,-0.100000)"
fill="#0052FF" stroke="none">
<path d="M2400 5109 c-831 -92 -1550 -558 -1965 -1274 -164 -282 -269 -586
-322 -932 -26 -168 -23 -516 6 -702 87 -565 330 -1051 726 -1446 391 -391 890
-641 1446 -726 170 -26 492 -31 654 -10 594 75 1117 331 1527 747 291 295 488
619 617 1016 l41 127 0 649 0 648 -25 86 c-83 285 -239 587 -433 838 -90 116
-296 326 -415 421 -360 291 -773 472 -1237 544 -126 19 -497 28 -620 14z m431
-150 c412 -32 782 -157 1124 -380 605 -393 996 -1015 1086 -1729 16 -126 16
-449 0 -575 -51 -409 -209 -810 -444 -1128 -333 -452 -810 -776 -1342 -912
-233 -60 -322 -70 -600 -70 -273 0 -367 10 -585 65 -930 233 -1633 996 -1796
1950 -21 128 -30 485 -15 630 57 539 285 1027 666 1419 277 286 577 477 947
606 311 109 633 150 959 124z"/>
<path d="M2530 4629 c-223 -34 -414 -161 -495 -331 l-35 -72 0 172 c0 170 0
173 -25 197 -47 48 -117 23 -130 -47 -3 -18 -5 -158 -3 -311 l3 -279 28 -24
c15 -13 38 -24 51 -24 23 0 66 33 66 50 0 26 18 3 44 -55 35 -79 128 -184 210
-237 l59 -38 -237 0 c-196 0 -242 -3 -267 -16 -17 -8 -72 -59 -123 -112 -51
-53 -188 -197 -305 -320 -220 -232 -251 -273 -251 -347 0 -46 28 -112 59 -139
11 -11 21 -26 21 -34 0 -8 -16 -65 -35 -128 l-36 -113 -74 -35 c-74 -36 -112
-72 -151 -146 -27 -51 -26 -169 3 -232 62 -135 235 -203 386 -152 97 33 178
137 193 247 14 98 -60 228 -157 278 -22 11 -39 24 -39 31 0 6 9 42 21 80 l20
70 37 -8 c51 -11 109 -8 158 10 l41 14 7 -74 c11 -124 51 -258 112 -381 l57
-114 -6 -262 c-4 -144 -3 -293 2 -330 14 -106 62 -162 165 -192 l41 -12 3 -80
3 -80 -63 -6 c-119 -13 -221 -89 -248 -185 -13 -50 -13 -146 2 -194 15 -50 78
-122 132 -151 37 -20 58 -22 223 -25 146 -3 194 0 238 13 112 32 185 133 185
256 0 86 -22 149 -72 200 -49 50 -103 75 -185 84 l-63 7 0 74 0 74 63 28 c71
32 121 84 136 139 6 21 11 84 11 141 0 56 2 102 3 102 2 0 39 -9 83 -21 122
-32 312 -36 439 -10 55 11 110 23 123 27 22 6 22 6 22 -110 0 -76 5 -128 14
-149 19 -47 73 -94 130 -116 l51 -19 3 -86 3 -86 -58 0 c-103 -1 -193 -59
-234 -152 -49 -114 -18 -266 69 -338 66 -54 109 -62 324 -58 190 3 194 3 240
30 97 58 144 150 136 267 -6 75 -30 131 -80 178 -38 37 -111 72 -149 73 -15 0
-41 3 -58 6 l-32 7 3 79 3 79 53 18 c29 10 69 33 88 52 59 57 64 92 64 440 l0
308 49 98 c62 123 101 252 108 366 3 48 9 87 13 87 4 0 24 -7 43 -15 46 -19
127 -19 172 -1 l34 15 25 -79 c15 -44 26 -83 26 -88 0 -5 -18 -17 -39 -27 -21
-9 -57 -36 -79 -59 -86 -87 -108 -202 -60 -306 36 -79 70 -115 143 -151 60
-29 70 -31 147 -27 94 5 146 26 203 83 77 77 104 193 70 296 -24 71 -102 150
-174 176 l-52 18 -41 129 c-33 103 -39 132 -29 145 51 70 65 165 33 233 -21
46 -625 686 -659 699 -13 5 -133 9 -266 9 l-242 0 64 41 c84 53 160 133 201
211 18 35 34 65 36 67 2 2 15 -6 30 -18 35 -28 69 -27 100 4 l25 25 -3 311 -3
311 -24 19 c-30 25 -62 24 -94 -2 -26 -20 -27 -20 -29 -187 l-3 -167 -29 60
c-42 86 -160 200 -256 248 -135 67 -318 97 -460 76z m251 -159 c134 -25 276
-127 330 -236 28 -57 33 -76 32 -142 0 -60 -5 -88 -23 -127 -46 -97 -170 -191
-305 -231 -90 -27 -259 -25 -350 4 -139 43 -237 118 -287 220 -29 59 -33 76
-33 147 0 70 4 87 30 133 58 106 188 197 325 226 78 17 207 20 281 6z m-672
-1004 c-2 -2 -39 -27 -82 -56 -180 -120 -338 -324 -402 -519 -13 -39 -35 -72
-82 -122 -59 -62 -69 -69 -103 -69 -58 0 -160 88 -160 137 0 27 28 59 358 401
l224 232 126 0 c69 0 123 -2 121 -4z m1455 -134 c71 -75 200 -212 288 -304
173 -183 181 -197 131 -245 -58 -54 -106 -83 -139 -83 -26 0 -43 11 -92 60
-58 59 -68 75 -115 198 -67 170 -236 369 -399 468 -32 20 -58 37 -58 40 0 2
57 4 128 4 l127 -1 129 -137z m-669 79 c311 -84 540 -305 637 -611 20 -65 23
-95 23 -225 0 -170 -12 -228 -74 -360 -102 -216 -344 -409 -596 -477 -110 -29
-334 -31 -450 -4 -346 80 -603 322 -686 644 -38 149 -21 371 39 519 103 253
360 461 652 529 88 21 355 12 455 -15z m-1635 -1171 c95 -48 93 -188 -3 -233
-102 -49 -217 14 -217 118 0 108 116 168 220 115z m2948 -7 c70 -51 78 -142
16 -200 -127 -119 -328 37 -222 173 12 14 35 33 52 40 41 19 120 12 154 -13z
m-2070 -556 c21 -19 22 -29 22 -143 0 -166 -3 -169 -135 -168 -141 1 -135 -10
-135 264 l0 218 113 -75 c61 -42 122 -85 135 -96z m1252 -55 c0 -173 -3 -222
-14 -238 -13 -17 -27 -19 -116 -19 -133 0 -130 -3 -130 171 l0 132 63 36 c34
19 91 58 127 85 36 28 66 50 68 51 1 0 2 -98 2 -218z m-1226 -741 c71 -12 96
-44 96 -121 0 -48 -5 -64 -24 -87 l-24 -28 -159 -3 c-98 -2 -172 1 -196 8 -68
20 -96 101 -62 175 26 53 54 61 225 63 52 0 117 -3 144 -7z m1284 -10 c36 -19
56 -59 55 -111 -1 -104 -34 -120 -240 -120 -177 0 -210 10 -232 75 -28 82 6
153 80 166 66 12 310 5 337 -10z"/>
<path d="M2415 4170 c-38 -12 -55 -35 -55 -76 0 -23 8 -39 26 -53 25 -20 39
-21 261 -21 l234 0 24 25 c33 32 33 74 -1 106 -25 24 -28 24 -242 26 -119 1
-230 -2 -247 -7z"/>
<path d="M2414 3216 c-27 -22 -28 -27 -32 -141 l-5 -118 -62 -61 c-40 -40 -73
-85 -96 -131 -33 -67 -34 -74 -34 -185 0 -114 1 -118 37 -191 26 -53 56 -93
99 -134 l61 -58 2 -118 c1 -108 3 -120 23 -140 31 -32 80 -30 110 5 20 24 23
38 23 108 l0 81 38 -7 c20 -3 52 -6 70 -6 l32 0 0 -74 c0 -91 5 -105 43 -121
36 -15 82 -3 97 25 6 10 10 59 10 108 l0 89 58 38 c86 56 102 74 102 111 0 33
-37 74 -66 74 -8 0 -54 -21 -104 -47 -84 -44 -96 -47 -163 -47 -100 1 -176 32
-243 98 -65 66 -89 130 -82 225 8 110 65 189 178 247 48 25 66 29 141 29 83 0
91 -2 169 -42 45 -24 93 -43 106 -43 38 0 66 35 62 78 -3 33 -9 41 -68 80 -36
23 -71 47 -77 52 -9 7 -13 42 -13 105 0 89 -1 95 -26 114 -35 28 -69 26 -99
-4 -22 -21 -25 -33 -25 -98 l0 -74 -37 -7 c-21 -3 -52 -6 -69 -6 l-32 0 -4 81
c-3 74 -6 83 -31 105 -35 30 -59 30 -93 0z"/>
</g>
</svg>
