<svg width="24px" height="29px" viewBox="0 0 32 37" fill="none" xmlns="http://www.w3.org/2000/svg">
<path d="M27.2822 12.2828C26.6294 12.6629 25.9822 13.0317 25.3464 13.4118C25.2897 13.4459 25.2443 13.5537 25.2443 13.6274C25.2329 14.1153 25.2386 14.6089 25.2386 15.1025C25.2386 17.7804 25.2386 20.4639 25.2386 23.1418C25.2386 23.3063 25.2953 23.3858 25.4316 23.4652C25.9936 23.7772 26.5499 24.095 27.1006 24.424C27.2311 24.5034 27.3049 24.4978 27.4241 24.3956C28.2019 23.7602 29.0704 23.607 29.973 24.0723C30.8416 24.5205 31.239 25.2921 31.2106 26.2565C31.1822 27.2891 30.3647 28.1742 29.3259 28.3387C27.9521 28.5543 26.7656 27.6352 26.6521 26.2509C26.6351 26.0353 26.6748 25.814 26.7145 25.5984C26.7372 25.4849 26.7089 25.4282 26.6124 25.3715C26.0277 25.0367 25.4429 24.7077 24.8639 24.3616C24.722 24.2765 24.6198 24.3162 24.5006 24.3843C23.0587 25.2183 21.6168 26.0523 20.1749 26.8863C18.8806 27.6295 17.5806 28.3727 16.2806 29.116C16.1727 29.1784 16.133 29.2521 16.133 29.3713C16.133 30.0578 16.1387 30.7442 16.133 31.4307C16.133 31.5612 16.1955 31.5953 16.3033 31.6293C17.2854 31.9357 17.9212 32.8434 17.8814 33.8646C17.836 34.9313 17.1435 35.7823 16.1217 36.0206C14.8444 36.3156 13.5557 35.4759 13.3571 34.188C13.164 32.9229 13.8793 31.9981 14.9125 31.635C15.0431 31.5896 15.0885 31.5329 15.0885 31.3967C15.0828 30.7215 15.0828 30.0521 15.0885 29.3769C15.0885 29.2521 15.0487 29.184 14.9409 29.1273C12.1706 27.5274 9.40031 25.9218 6.63003 24.3276C6.57894 24.2992 6.47108 24.2992 6.41999 24.3276C5.81257 24.668 5.21083 25.0254 4.60341 25.3715C4.5069 25.4282 4.47853 25.4793 4.50691 25.5927C4.80778 26.8239 4.0755 27.9983 2.8266 28.3103C1.61745 28.611 0.38556 27.8791 0.0733366 26.6821C-0.182119 25.7005 0.243638 24.6793 1.13489 24.1347C1.94668 23.6411 3.08772 23.7432 3.803 24.4013C3.91653 24.5091 3.99601 24.5091 4.12658 24.4354C4.69426 24.1006 5.27327 23.7772 5.84663 23.4539C5.96017 23.3914 6.01128 23.3177 6.01128 23.1872C6.01128 20.0328 6.0056 16.884 6.01128 13.7296C6.01128 13.531 5.94881 13.4289 5.77851 13.3324C5.21651 13.0204 4.66586 12.697 4.10953 12.3736C4.00167 12.3112 3.93924 12.2998 3.83706 12.3963C2.55978 13.5593 0.567235 12.992 0.0903836 11.3354C-0.278608 10.0588 0.572896 8.70854 1.88424 8.48728C3.23531 8.26034 4.47286 9.21915 4.58071 10.5808C4.59775 10.7907 4.55802 11.0063 4.51828 11.2162C4.50125 11.324 4.50691 11.3864 4.60909 11.4431C5.20516 11.7836 5.79555 12.124 6.38593 12.4757C6.52785 12.5608 6.62435 12.4927 6.73221 12.4303C7.68591 11.88 8.63963 11.3297 9.59334 10.7794C11.3645 9.75813 13.13 8.73691 14.9068 7.72136C15.0431 7.64193 15.0942 7.55683 15.0942 7.3923C15.0885 6.72283 15.0942 6.05904 15.0942 5.38957C15.0942 5.2761 15.0544 5.22504 14.9466 5.191C14.0723 4.913 13.516 4.31729 13.3684 3.41521C13.0845 1.7075 14.5605 0.601176 15.8776 0.754359C17.6317 0.964277 18.364 2.91595 17.5863 4.1868C17.2911 4.66904 16.871 5.01512 16.326 5.17965C16.1727 5.22504 16.1387 5.29312 16.1387 5.44063C16.1443 6.1101 16.1387 6.77389 16.15 7.44336C16.15 7.52279 16.2068 7.63059 16.2693 7.66463C18.4491 8.92981 20.6347 10.1836 22.8203 11.4431C23.3823 11.7665 23.9443 12.0842 24.5006 12.419C24.6539 12.5098 24.7674 12.5211 24.9264 12.419C25.4713 12.0842 26.0333 11.7722 26.5897 11.4545C26.7032 11.3864 26.7486 11.324 26.7145 11.1878C26.4023 9.94536 27.3333 8.37381 29.042 8.44189C29.9333 8.4816 30.6372 8.90711 31.0119 9.74678C31.3922 10.5978 31.2787 11.4091 30.7053 12.141C29.8879 13.1962 28.3495 13.27 27.3674 12.3452C27.3447 12.3225 27.322 12.3055 27.2879 12.2771L27.2822 12.2828ZM24.177 18.4102C24.177 16.7989 24.177 15.1876 24.177 13.582C24.177 13.5253 24.1203 13.4459 24.0635 13.4118C21.4181 11.88 18.767 10.3652 16.133 8.82201C15.7413 8.5894 15.4745 8.60642 15.0885 8.82769C12.5226 10.3255 9.93962 11.8062 7.35668 13.2757C7.10122 13.4175 7.03878 13.5707 7.03878 13.8487C7.05013 16.9577 7.04445 20.0668 7.03878 23.1702C7.03878 23.3177 7.08419 23.3971 7.20907 23.4652C7.63483 23.6978 8.06058 23.9304 8.47499 24.1744C10.8025 25.5133 13.1243 26.8579 15.4461 28.2025C15.5653 28.2706 15.6562 28.2649 15.7754 28.2025C18.5286 26.614 21.2875 25.0254 24.0351 23.4312C24.0976 23.3914 24.1657 23.2893 24.1657 23.2156C24.1713 21.6157 24.1657 20.0214 24.1657 18.4215L24.177 18.4102ZM30.166 10.734C30.166 10.0532 29.6438 9.50283 28.9796 9.50283C28.2757 9.50283 27.708 10.0475 27.7137 10.734C27.7137 11.3807 28.287 11.9424 28.9399 11.9538C29.6211 11.9651 30.1604 11.4261 30.166 10.7396V10.734ZM1.06109 10.6886C1.06109 11.3921 1.60606 11.9367 2.29863 11.9424C2.97417 11.9424 3.51347 11.3978 3.50779 10.7113C3.50779 10.0588 2.94013 9.49715 2.2873 9.49715C1.60041 9.49715 1.05542 10.0305 1.06109 10.6829V10.6886ZM2.27594 27.3288C2.95148 27.3288 3.49644 26.7955 3.50779 26.1147C3.51915 25.4793 2.95716 24.8949 2.31568 24.8836C1.62879 24.8722 1.06678 25.3942 1.06678 26.0523C1.06678 26.7728 1.58336 27.3232 2.27025 27.3288H2.27594ZM28.9285 24.9006C28.1451 24.9063 27.6966 25.5701 27.725 26.1544C27.7591 26.8693 28.3551 27.3799 29.0704 27.3231C29.6495 27.2778 30.2228 26.7615 30.1547 25.9615C30.1036 25.3715 29.5246 24.8609 28.9228 24.9006H28.9285ZM15.6221 4.26055C16.3033 4.26055 16.8199 3.74427 16.8199 3.05211C16.8199 2.37129 16.2749 1.80962 15.6107 1.81529C14.9522 1.81529 14.4072 2.36562 14.4016 3.01807C14.4016 3.71023 14.9352 4.26055 15.6221 4.26055ZM14.4016 33.7909C14.4016 34.4774 14.9352 35.0164 15.6164 35.022C16.2749 35.022 16.8199 34.4774 16.8199 33.8022C16.8199 33.1441 16.2806 32.5824 15.6448 32.5768C14.9409 32.5768 14.4072 33.0987 14.4072 33.7909H14.4016Z" fill="#0052FF"/>
<path d="M15.5993 25.0256C11.7902 24.9746 9.01993 21.9563 8.99155 18.4161C8.96316 14.9723 11.7562 11.7895 15.6334 11.8008C19.3858 11.8122 22.2355 14.8248 22.2185 18.4331C22.2014 22.1776 19.2495 25.0029 15.5937 25.0313L15.5993 25.0256ZM15.7299 12.8617C12.8064 12.7313 10.0928 15.2106 10.0531 18.2912C10.0134 21.4684 12.5793 23.8853 15.4858 23.9647C18.0744 24.0385 21.0661 22.0357 21.1626 18.5465C21.2534 15.2559 18.5569 12.8731 15.7299 12.8617Z" fill="#0052FF"/>
<path d="M16.9376 17.5662C17.0336 17.6142 17.1289 17.6652 17.2218 17.7132C17.2644 17.7346 17.4046 17.8092 17.4046 17.8092L17.3821 17.8683V17.8868C17.3821 17.8868 17.3736 17.9164 17.3512 17.9348L17.2892 17.9777C16.5403 18.5207 16.2421 19.2329 16.3993 20.0951C16.5349 20.842 17.2241 21.3821 18.0412 21.3821C18.3564 21.3821 18.6693 21.2993 18.9419 21.1412C19.5305 20.8014 19.7783 20.2525 19.6962 19.4627C19.6567 19.0851 19.4708 18.7401 19.0906 18.3441C18.7862 18.0257 18.4036 17.745 17.8855 17.4554C17.6121 17.3032 17.3279 17.1532 17.0522 17.0113C16.9198 16.9419 16.7873 16.8724 16.658 16.8023C16.6356 16.7919 16.6154 16.7757 16.5992 16.7624L16.5233 16.7092L16.5906 16.6479C16.6495 16.5947 16.706 16.5407 16.7649 16.4898C16.8888 16.3797 17.0073 16.2733 17.1111 16.1551C17.393 15.8315 17.4999 15.4274 17.4069 15.0439C17.314 14.6612 17.0321 14.3428 16.6325 14.1684C16.3761 14.0561 16.1174 14 15.8611 14C15.5653 14 15.2671 14.0746 14.9767 14.2224C14.6444 14.3908 14.4307 14.6428 14.3401 14.9745C14.2022 15.4724 14.3455 15.9216 14.7621 16.3102C14.8435 16.3848 14.931 16.4572 15.0216 16.5326C15.0665 16.5673 15.1091 16.605 15.154 16.6427L15.2384 16.7151L14.9255 16.8732C14.7676 16.9537 14.6158 17.0313 14.4609 17.1089C13.8754 17.4088 13.3093 17.7139 12.8252 18.1314C12.2397 18.6374 11.9694 19.1886 12.0027 19.8121C12.0616 20.8826 12.9011 21.3703 13.6554 21.3703C13.7677 21.3703 13.8808 21.3592 13.9908 21.3407C14.7056 21.2099 15.216 20.7253 15.3228 20.0803C15.4607 19.2455 15.1649 18.5414 14.4415 17.9925L14.2587 17.8536L14.3432 17.7945C14.3432 17.7945 14.3625 17.7812 14.3687 17.776C14.3857 17.7627 14.4028 17.7516 14.4221 17.7413L14.6026 17.6526C14.9798 17.4679 15.3685 17.2751 15.7542 17.0933C15.7798 17.08 15.8131 17.0749 15.8503 17.0749C15.8952 17.0749 15.9401 17.086 15.9742 17.1015C16.253 17.2322 16.5511 17.3748 16.9368 17.5669L16.9376 17.5662ZM17.5146 18.5081C17.6106 18.4173 17.7229 18.3316 17.8499 18.2488C17.8979 18.2171 17.9599 18.2141 17.9847 18.2141C18.0187 18.2141 18.0637 18.2193 18.1001 18.2459C18.4772 18.5133 18.9194 18.9019 18.993 19.5196C18.9961 19.5521 18.9984 19.5838 19.0015 19.6134L19.0069 19.6614V19.6666C18.9984 19.9584 18.9419 20.186 18.8327 20.3862C18.6662 20.6883 18.3711 20.8679 18.0358 20.8679C17.7314 20.8679 17.4503 20.7179 17.2667 20.4586C16.8725 19.9045 16.9879 19.0105 17.5146 18.5104V18.5074V18.5081ZM14.5352 20.3175H14.5383C14.3834 20.6226 14.1697 20.7962 13.8847 20.8583C13.8281 20.8693 13.7662 20.8767 13.7073 20.8767C13.3836 20.8767 13.0653 20.7053 12.9104 20.4482C12.7749 20.2236 12.7106 19.9717 12.716 19.7094C12.7044 19.3267 12.8314 18.9891 13.0932 18.7054C13.2001 18.5902 13.3216 18.486 13.437 18.387C13.4851 18.3441 13.5331 18.3042 13.5803 18.2614C13.6229 18.2237 13.6732 18.2023 13.7236 18.2023C13.7662 18.2023 13.808 18.2156 13.8529 18.24C14.5763 18.636 14.8946 19.6075 14.5344 20.3167L14.5352 20.3175ZM15.8673 16.3346C15.8247 16.3346 15.7829 16.3235 15.755 16.308C15.5381 16.1795 15.2679 15.9999 15.0959 15.7273C14.972 15.5293 14.9891 15.2752 14.9891 15.2752C15.0084 14.8976 15.2849 14.6516 15.7519 14.6006C15.7914 14.5955 15.8278 14.5955 15.8673 14.5955C16.0168 14.5955 16.1631 14.6272 16.2979 14.6915C16.4954 14.7824 16.6356 14.9375 16.7006 15.1304C16.7626 15.3232 16.7401 15.5241 16.6332 15.7029C16.4698 15.9733 16.222 16.1469 15.9602 16.3161L15.9633 16.311C15.9323 16.3294 15.8959 16.3353 15.8673 16.3353V16.3346Z" fill="#0052FF"/>
</svg>
