<svg width="27" height="33" viewBox="0 0 32 27" fill="none" xmlns="http://www.w3.org/2000/svg">
<path d="M17.5871 21.0641C17.4673 21.0435 17.3315 21.0435 17.2117 21.0435H10.7049C10.3414 21.0435 10.2375 20.9364 10.2375 20.5656V9.79119C10.2375 9.72939 10.2375 9.66759 10.2256 9.6305C10.2016 9.55222 10.1696 9.4863 10.1377 9.44921C10.0818 9.38329 9.98988 9.37093 9.81014 9.37093H4.19008H3.73472C3.66682 9.37093 3.60291 9.37093 3.53501 9.37093C3.33529 9.37093 3.23543 9.47806 3.22744 9.68819C3.22744 9.77883 3.22744 20.6933 3.22744 20.8045C3.22744 20.9364 3.12359 21.0435 2.99577 21.0435H2.70817C2.70817 21.0435 2.09704 21.0435 1.92927 21.0435C1.80545 21.0435 1.73355 20.99 1.69361 20.9488C1.63369 20.8869 1.60573 20.8004 1.60973 20.6974C1.61372 20.5656 1.61771 20.4337 1.61771 20.3019V8.76938C1.61771 8.52216 1.61771 8.27495 1.60973 8.02774C1.60573 7.82997 1.70559 7.70224 1.89732 7.66516C2.01316 7.64044 2.13299 7.61572 2.22486 7.56627C2.37664 7.48387 2.52044 7.3891 2.67622 7.28198C2.74013 7.24078 2.80803 7.19545 2.87194 7.15425C2.90789 7.12953 2.95183 7.11717 2.99577 7.11717C3.05968 7.11717 3.12359 7.14601 3.16752 7.19545C3.45112 7.51271 3.87053 7.69812 4.3139 7.69812C4.76527 7.69812 5.18867 7.50859 5.50422 7.16661C5.54816 7.12129 5.60808 7.09245 5.67199 7.09245C5.7359 7.09245 5.79981 7.12129 5.83975 7.17073C6.13533 7.50447 6.56273 7.694 7.01009 7.694C7.45746 7.694 7.88086 7.50447 8.19242 7.16661C8.23636 7.12129 8.29628 7.09245 8.36418 7.09245C8.42809 7.09245 8.48801 7.12129 8.53195 7.17073C8.82753 7.50447 9.25492 7.69812 9.70629 7.69812C10.1576 7.69812 10.5771 7.51271 10.8846 7.17073C10.9286 7.12129 10.9885 7.09657 11.0524 7.09657C11.1163 7.09657 11.1762 7.12541 11.2201 7.17073C11.5277 7.50859 11.9471 7.69812 12.3905 7.69812C12.8339 7.69812 13.2732 7.50447 13.5768 7.16661C13.6208 7.11717 13.6807 7.09245 13.7446 7.09245C13.8085 7.09245 13.8684 7.11717 13.9123 7.16661C14.2479 7.52507 14.6353 7.69812 15.0947 7.69812C15.546 7.69812 15.9335 7.52507 16.277 7.16661C16.3209 7.12129 16.3809 7.09657 16.4408 7.09657C16.5007 7.09657 16.5606 7.12129 16.6045 7.16661C16.9441 7.52507 17.3315 7.69812 17.7829 7.69812C18.2342 7.69812 18.6217 7.52507 18.9652 7.16661C19.0091 7.12129 19.0691 7.09657 19.129 7.09657C19.1889 7.09657 19.2488 7.12129 19.2927 7.16661C19.6323 7.52507 20.0197 7.69812 20.4751 7.69812C20.9224 7.69812 21.3099 7.52507 21.6574 7.16661C21.7013 7.12129 21.7613 7.09657 21.8212 7.09657C21.8811 7.09657 21.941 7.12129 21.9849 7.16661C22.3285 7.52095 22.7159 7.69812 23.1673 7.69812C23.6146 7.69812 24.0021 7.52507 24.3496 7.16661C24.3935 7.12129 24.4534 7.09657 24.5134 7.09657C24.5733 7.09657 24.6332 7.12129 24.6771 7.16661C24.9567 7.45915 25.2603 7.62808 25.6038 7.68576C25.7756 7.7146 25.8674 7.90825 25.8714 8.03186C25.8714 8.81058 25.8714 9.5893 25.8714 10.368V10.5988L26.4107 10.9243C26.4107 9.91068 26.4027 8.8971 26.3987 7.88353C26.3987 7.73108 26.4546 7.61572 26.5824 7.52095L26.6224 7.49211C26.7901 7.3685 26.9659 7.24078 27.0977 7.09245C27.3653 6.79991 27.4892 6.39613 27.4932 5.83166C27.5011 4.32366 27.5011 3.15352 27.4932 2.03694C27.4932 1.81444 27.4532 1.59607 27.3853 1.3983C27.1936 0.833831 26.6743 0.479492 26.0312 0.479492H1.39004C0.922696 0.495973 0.563204 0.681383 0.291588 1.03572C0.0958645 1.28706 0.00399436 1.59607 0 2.00397C0 3.2318 0 4.45963 0 5.68745C0 5.88522 0.00798871 6.05827 0.0279605 6.21484C0.0878758 6.75459 0.363486 7.18309 0.846803 7.48387C1.00658 7.58275 1.07848 7.7146 1.07848 7.91237C1.07848 11.8266 1.07848 15.7367 1.07848 19.6509V20.8045C1.07848 20.9364 0.974623 21.0435 0.846803 21.0435C0.846803 21.0435 0.423402 21.0435 0.379464 21.0435C0.323543 21.0435 0.259633 21.0435 0.203712 21.0559C0.0998589 21.0765 0.00399436 21.1918 0.00399436 21.3072C0.00399436 21.4267 0.0758928 21.5338 0.179746 21.5585C0.251644 21.575 0.33952 21.5833 0.447368 21.5833H8.49999H17.3115C17.4114 21.5833 17.5033 21.575 17.5832 21.5627C17.683 21.5462 17.7469 21.4803 17.7669 21.3814V21.2619C17.7669 21.2619 17.7669 21.2454 17.7669 21.2372C17.7469 21.1424 17.683 21.0765 17.5911 21.06L17.5871 21.0641ZM24.793 5.44024V4.32778C24.793 3.35541 24.793 2.37891 24.793 1.40654C24.793 1.3571 24.793 1.22113 24.8888 1.12225C24.9847 1.02336 25.1085 1.02336 25.1485 1.02336C25.1485 1.02336 25.1644 1.02336 25.1684 1.02336C25.2523 1.02336 25.3402 1.02336 25.4241 1.02336H25.8635H26.0152C26.1231 1.02336 26.2469 1.0316 26.3707 1.06868C26.7382 1.17993 26.9579 1.50131 26.9619 1.92981C26.9619 2.22647 26.9619 2.52312 26.9619 2.81978V3.30184V3.93636C26.9619 3.95284 26.9659 3.9652 26.9659 3.98168V5.95115C26.9659 6.53622 26.6823 6.95236 26.191 7.10069C26.0831 7.13365 25.9793 7.14601 25.8714 7.14601C25.2883 7.14601 24.8329 6.68455 24.8089 6.07063C24.805 5.9223 24.805 5.7781 24.8089 5.62977V5.43612L24.793 5.44024ZM22.1926 1.12637C22.2765 1.03984 22.3844 1.02748 22.4683 1.02748H22.4842C22.7079 1.02748 22.9356 1.0316 23.1593 1.0316C23.3989 1.0316 23.6346 1.0316 23.8902 1.02336C23.9342 1.02336 24.066 1.02336 24.1659 1.12637C24.2657 1.22937 24.2657 1.36946 24.2617 1.42714C24.2617 2.01221 24.2617 2.59317 24.2617 3.17824V3.69739C24.2617 3.69739 24.2657 3.72623 24.2657 3.74271V4.3319C24.2657 4.83869 24.2657 5.34135 24.2657 5.84814C24.2657 6.15304 24.2338 6.50326 23.9661 6.79579C23.7584 7.0224 23.4748 7.15013 23.1753 7.15013C23.0474 7.15013 22.9196 7.12953 22.7998 7.08421C22.4043 6.94 22.1247 6.5527 22.1048 6.11183C22.1008 6.00059 22.1008 5.88522 22.1008 5.77398V4.7192C22.1008 3.6191 22.1008 2.519 22.1008 1.4189C22.1008 1.3365 22.1088 1.22113 22.1966 1.13049L22.1926 1.12637ZM19.4965 1.12637C19.5763 1.04396 19.6802 1.0316 19.7481 1.0316H19.7561C20.0357 1.0316 20.3193 1.0316 20.5989 1.0316C20.8106 1.0316 21.0183 1.0316 21.234 1.0316C21.2739 1.0316 21.3898 1.0316 21.4777 1.12637C21.5655 1.22113 21.5655 1.34474 21.5655 1.38182C21.5655 2.00809 21.5655 3.46665 21.5655 3.46665C21.5655 4.30718 21.5655 5.14358 21.5655 5.98411C21.5655 6.54034 21.2699 6.95648 20.7826 7.10069C20.6748 7.13365 20.5669 7.15013 20.4591 7.15013C19.8719 7.15013 19.4246 6.68867 19.4126 6.07887C19.4046 5.53912 19.4046 4.99113 19.4086 4.45963C19.4086 4.45963 19.4086 3.99404 19.4086 3.77155C19.4086 3.75919 19.4086 3.74683 19.4086 3.73447V3.05463C19.4086 2.50252 19.4086 1.94629 19.4086 1.39006C19.4086 1.32002 19.4166 1.21289 19.5004 1.12637H19.4965ZM16.8003 1.12637C16.8881 1.03572 17.004 1.03572 17.0399 1.03572C17.3355 1.03572 17.6271 1.03572 17.9227 1.03572C18.1304 1.03572 18.3341 1.03572 18.5458 1.03572C18.6457 1.03572 18.7255 1.06868 18.7815 1.12637C18.8693 1.21701 18.8693 1.32826 18.8693 1.3983C18.8693 1.87213 18.8693 2.35007 18.8693 2.8239V5.96763C18.8693 6.60626 18.5498 7.0224 17.9666 7.13365C17.9027 7.14601 17.8348 7.15425 17.7669 7.15425C17.2277 7.15425 16.7803 6.72987 16.7244 6.16952C16.7164 6.06651 16.7124 5.95939 16.7124 5.85638V3.22768C16.7124 2.61377 16.7124 1.99985 16.7124 1.38594C16.7124 1.34474 16.7124 1.22525 16.8003 1.13049V1.12637ZM14.0122 1.39006C14.0122 1.3365 14.0122 1.21701 14.1001 1.12637C14.14 1.08516 14.2119 1.03572 14.3317 1.03572H15.0787H15.9375C16.0653 1.03572 16.1692 1.14285 16.1692 1.27469V6.00471C16.1731 6.5115 15.9175 6.9194 15.5021 7.07185C15.3663 7.12129 15.2265 7.14601 15.0907 7.14601C14.7512 7.14601 14.4476 6.99768 14.2359 6.72163C14.0402 6.47029 14.0122 6.17364 14.0122 5.94703C14.0122 5.42788 14.0122 4.90873 14.0122 4.38546V1.38182V1.39006ZM11.316 1.99161V1.40242C11.316 1.37358 11.316 1.34474 11.32 1.31178V1.27057C11.328 1.14285 11.4279 1.04396 11.5517 1.04396H13.2333C13.3531 1.04396 13.453 1.13873 13.465 1.25821V1.28706C13.473 1.32002 13.477 1.3571 13.477 1.39418V2.25943C13.481 3.47489 13.4849 4.69448 13.4849 5.90994C13.4849 6.11183 13.453 6.30136 13.3971 6.46617C13.2533 6.86996 12.8578 7.15425 12.4264 7.15425C12.3985 7.15425 12.3665 7.15425 12.3386 7.15425C11.8433 7.10893 11.4558 6.75871 11.352 6.26016C11.328 6.14068 11.316 6.00471 11.316 5.85226C11.316 4.56675 11.316 3.27712 11.316 1.99161ZM8.62381 2.18526V1.3571C8.62381 1.33238 8.62781 1.30766 8.6318 1.27469V1.24585C8.65178 1.12637 8.75163 1.03984 8.86747 1.03984H10.5491C10.6689 1.03984 10.7728 1.13873 10.7808 1.26233V1.29942C10.7888 1.3365 10.7888 1.3777 10.7888 1.4189V2.00397C10.7888 3.30596 10.7888 4.60795 10.7888 5.90582C10.7888 6.08711 10.7688 6.24368 10.7328 6.37965C10.609 6.83287 10.1976 7.14601 9.71028 7.15425C9.24693 7.15425 8.82753 6.84111 8.69571 6.39201C8.64778 6.23544 8.62381 6.05827 8.62381 5.88522C8.62381 4.64916 8.62381 3.41309 8.62381 2.17702V2.18526ZM5.95559 1.20053C5.98754 1.10577 6.07542 1.04396 6.17128 1.04396H7.84891C7.97673 1.04396 8.08058 1.15109 8.08058 1.28294V5.52264C8.07259 5.58857 8.07659 5.65449 8.08058 5.72041C8.08458 5.87286 8.08857 6.04591 8.0686 6.21484C7.9967 6.77931 7.5733 7.15425 7.01009 7.15425H6.96616C6.4429 7.13365 5.98355 6.67218 5.93961 6.12832C5.93162 6.02119 5.93162 5.91406 5.93162 5.80282C5.93162 4.30718 5.93162 2.81154 5.93162 1.3159C5.93162 1.27469 5.9476 1.22525 5.95958 1.19641L5.95559 1.20053ZM3.23143 1.30354V1.26233C3.23942 1.13461 3.34328 1.03572 3.4671 1.03572H5.15272C5.28054 1.03572 5.38439 1.14285 5.38439 1.27469V5.76574C5.38439 5.80694 5.38439 5.84814 5.38439 5.88934C5.38439 5.97175 5.38839 6.05827 5.38439 6.14068C5.35244 6.71751 4.90507 7.14601 4.32189 7.15837C3.78266 7.15837 3.31132 6.73399 3.24741 6.19424C3.23942 6.10359 3.23543 6.00883 3.23543 5.91818C3.23543 4.40606 3.23143 2.89806 3.22744 1.38594C3.22744 1.36122 3.22744 1.3365 3.22744 1.30354H3.23143ZM0.539238 6.04179C0.535244 5.34959 0.535244 4.66152 0.535244 3.96932V2.85274C0.535244 2.74561 0.535244 2.63849 0.535244 2.51076C0.535244 2.32947 0.535244 2.14406 0.535244 1.96277C0.547227 1.39006 0.886747 1.03984 1.44596 1.0316C1.57378 1.0316 1.70559 1.0316 1.83341 1.0316H2.46452C2.59234 1.0316 2.69619 1.13873 2.69619 1.27057V6.02531C2.69619 6.6763 2.26081 7.14189 1.6297 7.15425C1.02655 7.15425 0.547227 6.66806 0.543232 6.04179H0.539238ZM9.71028 20.6727C9.71028 20.7139 9.71028 20.8457 9.61442 20.9446C9.52254 21.0435 9.39872 21.0435 9.3428 21.0435H8.33223H4.60549H4.30192C4.24201 21.0435 4.18209 21.0435 4.09821 21.0435C3.99835 21.0435 3.91846 21.0106 3.85455 20.9488C3.75869 20.8499 3.76268 20.7221 3.76268 20.6768C3.76668 18.3901 3.77067 16.1034 3.77467 13.8166C3.77467 13.1615 3.77467 12.5105 3.77467 11.8554V10.298C3.77467 10.265 3.77467 10.2362 3.77467 10.1991V10.1455C3.78665 10.0178 3.88651 9.91892 4.01033 9.91892H7.32964C7.9967 9.91892 8.66775 9.91892 9.3388 9.91892C9.66235 9.91892 9.71028 10.1538 9.71028 10.2939C9.71028 13.7548 9.71028 17.2117 9.71028 20.6727Z" fill="#0052FF"/>
<path d="M24.2538 10.5206V9.73779C24.2538 9.59359 24.2298 9.4947 24.1819 9.44526C24.1339 9.39582 24.0381 9.37109 23.8943 9.37109H18.1184C18.1184 9.37109 18.0905 9.37109 18.0865 9.37109H12.2827C12.2507 9.37109 12.2188 9.37109 12.1828 9.37109C11.9671 9.38757 11.8912 9.46174 11.8713 9.68011C11.8633 9.75015 11.8633 9.81608 11.8633 9.89436C11.8633 12.8774 11.8633 15.8646 11.8633 18.8476C11.8633 18.9547 11.8673 19.0454 11.8793 19.136C11.8952 19.2514 11.9631 19.3256 12.075 19.3462C12.1509 19.3585 12.2188 19.3668 12.2787 19.3668H14.3637C14.3637 19.3668 16.5167 19.3668 17.5912 19.3668C17.6471 19.3668 17.699 19.3585 17.755 19.3544C17.755 19.1813 17.755 19.0042 17.755 18.8311C17.6751 18.8229 17.5872 18.8188 17.4754 18.8188H17.1678C15.6939 18.8188 14.216 18.8188 12.742 18.8229C12.6941 18.8229 12.5663 18.8229 12.4704 18.724C12.3746 18.6251 12.3786 18.4933 12.3786 18.4479C12.3865 18.1266 12.3865 17.8299 12.3786 17.5456C12.3786 17.4632 12.3825 17.3437 12.4744 17.2531C12.5623 17.1583 12.6821 17.1501 12.762 17.1501C13.9324 17.1501 15.0987 17.1501 16.2691 17.1501C16.2691 17.1501 17.1438 17.1501 17.751 17.1501C17.751 16.9647 17.751 16.7751 17.751 16.5897C16.0773 16.5897 14.4037 16.5938 12.7261 16.6021C12.6861 16.6021 12.5663 16.6021 12.4704 16.5073C12.3746 16.4126 12.3786 16.2848 12.3786 16.2436C12.3786 14.2618 12.3786 12.28 12.3786 10.2981C12.3786 10.2528 12.3786 10.121 12.4744 10.018C12.5703 9.91908 12.6941 9.91908 12.762 9.91908H15.8776C18.3701 9.91908 20.8666 9.91908 23.359 9.91908C23.4309 9.91908 23.5388 9.92732 23.6227 10.018C23.7065 10.1045 23.7145 10.2199 23.7145 10.294C23.7145 10.4753 23.7145 10.6607 23.7145 10.842L24.2378 10.5248L24.2538 10.5206Z" fill="#0052FF"/>
<path d="M8.19247 15.346C8.19247 15.2842 8.18847 15.2224 8.18847 15.1564C8.18847 14.9628 8.00873 14.8186 7.82498 14.8145C7.64923 14.8145 7.4575 14.9175 7.44552 15.1399C7.42555 15.5479 7.42555 15.9722 7.44552 16.3966C7.45351 16.6026 7.63326 16.6933 7.80102 16.6933H7.813C8.0247 16.6892 8.16451 16.5614 8.18048 16.3637C8.18847 16.2277 8.18847 16.0876 8.18448 15.9434C8.18448 15.8775 8.18448 15.8157 8.18448 15.7497C8.18448 15.7333 8.18847 15.7127 8.20045 15.6962V15.6591C8.20045 15.5932 8.20045 15.5273 8.20045 15.4572C8.20045 15.416 8.20045 15.3789 8.19646 15.3377L8.19247 15.346Z" fill="#0052FF"/>
<path d="M31.6113 15.3374C31.6113 15.2921 31.6113 15.2467 31.6034 15.2055C31.5914 15.0943 31.5594 14.9954 31.5115 14.9048C31.5115 14.9048 31.5115 14.9006 31.5075 14.8965C31.4915 14.8677 31.4755 14.8429 31.4556 14.8182C31.4516 14.81 31.4436 14.8059 31.4396 14.7976C31.4236 14.777 31.4076 14.7564 31.3877 14.7358C31.3837 14.7317 31.3757 14.7276 31.3717 14.7193C31.3517 14.6987 31.3277 14.6781 31.2998 14.6575C31.2998 14.6575 31.2998 14.6575 31.2958 14.6575C31.2798 14.6452 31.2598 14.6287 31.2439 14.6163C31.16 14.5587 31.0721 14.5051 30.9842 14.4515C29.8179 13.7429 28.6475 13.0383 27.4812 12.3337C27.1257 12.1195 26.7702 11.9052 26.4147 11.6869C26.2589 11.5921 26.1031 11.4973 25.9473 11.4067C25.9234 11.3902 25.8994 11.3778 25.8755 11.3614C25.7237 11.2707 25.5719 11.1801 25.4241 11.0894C25.2963 11.0111 25.1685 10.9699 25.0446 10.9658C25.0326 10.9658 25.0207 10.9658 25.0087 10.9658C24.9967 10.9658 24.9847 10.9658 24.9727 10.9658C24.8449 10.9741 24.7211 11.0111 24.5933 11.0894C24.4814 11.1595 24.3696 11.2254 24.2537 11.2954C24.1898 11.3325 24.1299 11.3696 24.066 11.4067C23.9542 11.4726 23.8423 11.5427 23.7305 11.6127C23.331 11.8517 22.9316 12.0948 22.5362 12.3337C21.3698 13.0383 20.1995 13.747 19.0331 14.4515C18.9452 14.5051 18.8574 14.5587 18.7735 14.6163C18.7535 14.6287 18.7375 14.6452 18.7216 14.6575C18.7216 14.6575 18.7216 14.6575 18.7176 14.6575C18.6936 14.6781 18.6696 14.6987 18.6457 14.7193C18.6417 14.7235 18.6337 14.7276 18.6297 14.7358C18.6097 14.7564 18.5937 14.777 18.5778 14.7976C18.5738 14.8059 18.5658 14.81 18.5618 14.8182C18.5418 14.8429 18.5258 14.8718 18.5099 14.8965C18.5099 14.8965 18.5099 14.9006 18.5059 14.9048C18.4579 14.9954 18.426 15.0943 18.414 15.2055C18.41 15.2467 18.406 15.2921 18.406 15.3374C18.406 15.7576 18.406 16.1779 18.406 16.5982C18.406 16.7795 18.406 16.9649 18.406 17.1462C18.406 18.6706 18.406 20.1951 18.406 21.7196C18.406 21.9009 18.406 22.0781 18.406 22.2593C18.406 22.2635 18.406 22.2676 18.406 22.2717V22.2964C18.406 22.6219 18.5378 22.8691 18.8134 23.0339C19.125 23.2194 19.4326 23.413 19.7401 23.5984C20.6029 24.1217 21.4657 24.6408 22.3285 25.1641C23.0355 25.5926 23.7425 26.017 24.4455 26.4455C24.5014 26.4785 24.5573 26.5114 24.6132 26.5485C24.6811 26.5897 24.745 26.6185 24.813 26.6391C24.8209 26.6391 24.8249 26.6391 24.8329 26.6433C24.8609 26.6515 24.8849 26.6556 24.9128 26.6597C24.9248 26.6597 24.9408 26.6597 24.9528 26.6597C24.9727 26.6597 24.9887 26.6597 25.0087 26.6597C25.0286 26.6597 25.0446 26.6597 25.0646 26.6597C25.0766 26.6597 25.0926 26.6597 25.1045 26.6597C25.1325 26.6597 25.1565 26.6474 25.1844 26.6433C25.1924 26.6433 25.1964 26.6433 25.2044 26.6391C25.2723 26.6185 25.3362 26.5897 25.4041 26.5485C25.46 26.5155 25.516 26.4826 25.5719 26.4496C26.2789 26.0211 26.9859 25.5967 27.6889 25.1682C28.5517 24.645 29.4145 24.1258 30.2772 23.6025C30.5848 23.413 30.8924 23.2235 31.2039 23.0381C31.4795 22.8733 31.6113 22.626 31.6113 22.3005V22.2758C31.6113 22.2758 31.6113 22.2676 31.6113 22.2635C31.6113 22.0822 31.6113 21.9009 31.6113 21.7237C31.6113 19.5977 31.6113 17.4675 31.6113 15.3415V15.3374ZM31.1041 15.5063C31.1041 15.564 31.1041 15.6176 31.1041 15.6752C31.1041 15.943 31.1041 16.215 31.1041 16.4828C31.1041 17.2574 31.1041 18.032 31.1041 18.8107C31.1041 19.9685 31.1041 21.1263 31.1041 22.2841C31.1001 22.4365 31.0441 22.5395 30.9083 22.6178C30.453 22.8856 30.0056 23.1576 29.5543 23.4295C28.4598 24.0887 27.3653 24.7521 26.2749 25.4154C26.0792 25.5349 25.8834 25.6544 25.6877 25.7739C25.512 25.881 25.3362 25.9881 25.1605 26.0912C25.1085 26.12 25.0606 26.1365 25.0127 26.1406C24.9647 26.1406 24.9168 26.1241 24.8649 26.0912C24.6891 25.984 24.5134 25.8769 24.3376 25.7739C24.1419 25.6544 23.9462 25.5349 23.7505 25.4154C22.656 24.7521 21.5655 24.0928 20.4711 23.4295C20.0197 23.1576 19.5684 22.8815 19.117 22.6178C18.9812 22.5395 18.9253 22.4365 18.9213 22.2841C18.9213 21.1263 18.9213 19.9685 18.9213 18.8107C18.9213 18.0361 18.9213 17.2615 18.9213 16.4828C18.9213 16.215 18.9213 15.943 18.9213 15.6752C18.9213 15.6176 18.9213 15.564 18.9213 15.5063C18.9213 15.4527 18.9213 15.4033 18.9213 15.3497C18.9213 15.1849 18.9772 15.0819 19.109 14.9995C19.4006 14.8265 19.6962 14.6534 19.9838 14.4804C21.238 13.7222 22.4962 12.9641 23.7505 12.2019C23.8583 12.136 23.9701 12.07 24.078 12.0041C24.1379 11.967 24.1978 11.93 24.2577 11.8929C24.3776 11.8187 24.4974 11.7487 24.6132 11.6745C24.6851 11.6292 24.757 11.588 24.8289 11.5427C24.8968 11.5014 24.9567 11.485 25.0167 11.4808C25.0766 11.4808 25.1365 11.5014 25.2044 11.5427C25.2763 11.588 25.3482 11.6292 25.4201 11.6745C25.5879 11.7775 25.7556 11.8805 25.9234 11.9835C25.9354 11.9918 25.9434 11.9959 25.9553 12.0041C26.0232 12.0453 26.0951 12.0865 26.163 12.1318C27.4572 12.9147 28.7514 13.6975 30.0496 14.4804C30.3411 14.6575 30.6327 14.8306 30.9243 14.9995C31.0561 15.0819 31.1121 15.1849 31.1121 15.3497C31.1121 15.4033 31.1121 15.4527 31.1121 15.5063H31.1041Z" fill="#0052FF"/>
<path d="M30.1973 15.1847C30.0894 15.1147 29.9816 15.0529 29.8697 14.987C28.8432 14.3648 27.8206 13.7468 26.7941 13.1246C26.3267 12.8444 25.8634 12.5602 25.3961 12.2841C25.3601 12.2635 25.3242 12.247 25.2922 12.2305C25.2802 12.2264 25.2642 12.2182 25.2523 12.2141C25.2363 12.2099 25.2203 12.2017 25.2043 12.1976C25.1844 12.1935 25.1644 12.1893 25.1404 12.1852C25.1284 12.1852 25.1164 12.1811 25.1085 12.177C25.0885 12.177 25.0725 12.177 25.0525 12.1729C25.0366 12.1729 25.0246 12.1729 25.0086 12.1729C24.9926 12.1729 24.9806 12.1729 24.9647 12.1729C24.9447 12.1729 24.9287 12.1729 24.9087 12.177C24.8968 12.177 24.8848 12.1811 24.8768 12.1852C24.8568 12.1852 24.8368 12.1935 24.8129 12.1976C24.7969 12.2017 24.7809 12.2099 24.7649 12.2141C24.753 12.2182 24.737 12.2223 24.725 12.2305C24.6891 12.247 24.6531 12.2635 24.6211 12.2841C24.1498 12.5602 23.6865 12.8403 23.2231 13.1246C22.1966 13.7427 21.174 14.3648 20.1475 14.987C20.0396 15.0529 19.9278 15.1188 19.8199 15.1847C19.6322 15.3083 19.5044 15.4731 19.4525 15.6833C19.4285 15.7698 19.4165 15.8646 19.4165 15.9717C19.4165 17.8588 19.4165 19.7458 19.4165 21.6329C19.4165 21.6494 19.4165 21.6658 19.4165 21.6823C19.4165 21.773 19.4285 21.8595 19.4485 21.946C19.4485 21.9501 19.4485 21.9543 19.4485 21.9584C19.4485 21.9666 19.4525 21.9749 19.4564 21.979C19.4644 22.0037 19.4724 22.0243 19.4804 22.049C19.5164 22.1438 19.5723 22.2221 19.6442 22.2921C19.7041 22.3539 19.772 22.4075 19.8479 22.4528C19.9398 22.5064 20.0316 22.564 20.1235 22.6176H20.1355C20.3871 22.7701 20.6348 22.9266 20.8864 23.075C22.0728 23.7919 23.2551 24.5047 24.4414 25.2175C24.4414 25.2175 24.4374 25.2175 24.4334 25.2257C24.4694 25.2463 24.5013 25.2669 24.5373 25.2875C24.6251 25.3411 24.717 25.3823 24.8169 25.4111C24.8488 25.4194 24.8808 25.4276 24.9167 25.4317C24.9207 25.4317 24.9247 25.4317 24.9287 25.4317C24.9287 25.4317 24.9367 25.4317 24.9407 25.4317C24.9607 25.4317 24.9846 25.4317 25.0046 25.4317C25.0246 25.4317 25.0485 25.4317 25.0685 25.4317C25.0685 25.4317 25.0765 25.4317 25.0805 25.4317C25.0845 25.4317 25.0885 25.4317 25.0925 25.4317C25.1284 25.4276 25.1604 25.4194 25.1923 25.4111C25.2882 25.3864 25.3801 25.3452 25.4719 25.2875C25.5079 25.2669 25.5399 25.2463 25.5758 25.2257C25.5758 25.2257 25.5718 25.2216 25.5678 25.2175C26.7541 24.5047 27.9365 23.7919 29.1228 23.075C29.3744 22.9225 29.6221 22.7701 29.8737 22.6135H29.8857C29.9776 22.5599 30.0695 22.5064 30.1613 22.4487C30.2372 22.4034 30.3051 22.3498 30.365 22.288C30.4369 22.2221 30.4929 22.1397 30.5288 22.0449C30.5368 22.0202 30.5448 21.9996 30.5528 21.9749C30.5528 21.9666 30.5608 21.9584 30.5608 21.9543C30.5608 21.9501 30.5608 21.946 30.5608 21.9419C30.5807 21.8554 30.5927 21.7688 30.5927 21.6782C30.5927 21.6617 30.5927 21.6452 30.5927 21.6288C30.5927 19.7417 30.5927 17.8546 30.5927 15.9676C30.5927 15.8646 30.5807 15.7698 30.5568 15.6792C30.5048 15.4649 30.377 15.3042 30.1893 15.1806L30.1973 15.1847ZM29.3984 22.3168C28.3519 22.9472 27.3054 23.5776 26.2588 24.208C25.9073 24.4223 25.5558 24.6365 25.2043 24.8549C25.1963 24.8549 25.1923 24.8631 25.1844 24.8673C25.1324 24.8961 25.0845 24.9126 25.0366 24.9208C25.0286 24.9208 25.0166 24.9208 25.0086 24.9208C25.0006 24.9208 24.9886 24.9208 24.9806 24.9208C24.9327 24.9167 24.8808 24.8961 24.8328 24.8673C24.8249 24.8673 24.8209 24.859 24.8129 24.8549C24.4614 24.6365 24.1099 24.4181 23.7584 24.208C22.7118 23.5776 21.6653 22.9472 20.6188 22.3168C20.451 22.2138 20.2793 22.1149 20.1115 22.0119C20.1075 22.0119 20.1035 22.0078 20.0995 22.0037C20.0756 21.9872 20.0556 21.9749 20.0356 21.9584C19.9957 21.9213 19.9677 21.8801 19.9517 21.8307C19.9398 21.773 19.9358 21.6947 19.9358 21.5711C19.9358 20.6523 19.9358 19.7335 19.9358 18.8105C19.9358 18.1348 19.9358 17.455 19.9358 16.7793C19.9358 16.6145 19.9358 16.4496 19.9358 16.2848C19.9358 16.256 19.9358 16.2271 19.9358 16.1983C19.9358 16.1159 19.9358 16.0294 19.9358 15.947C19.9358 15.7863 19.9917 15.6915 20.1235 15.6132C20.4431 15.4196 20.7626 15.2259 21.0821 15.0364C21.3498 14.8757 21.6214 14.715 21.889 14.5543C22.1806 14.3772 22.4722 14.2 22.7638 14.0228C22.8077 13.9981 22.8516 13.9693 22.8956 13.9445C22.9315 13.9239 22.9675 13.9033 22.9994 13.8786C23.3589 13.6603 23.7184 13.4419 24.0779 13.2235C24.3296 13.0711 24.5772 12.9227 24.8249 12.7662C24.8808 12.7332 24.9327 12.7126 24.9846 12.7085C24.9966 12.7085 25.0046 12.7044 25.0166 12.7044C25.0286 12.7044 25.0366 12.7044 25.0485 12.7085C25.1005 12.7126 25.1524 12.7332 25.2083 12.7662C25.456 12.9227 25.7036 13.0711 25.9553 13.2235C26.3148 13.4419 26.6742 13.6603 27.0377 13.8786C27.0737 13.8992 27.1056 13.9198 27.1416 13.9445C27.1855 13.9693 27.2295 13.9981 27.2694 14.0228C27.561 14.2 27.8526 14.3772 28.1442 14.5543C28.4118 14.715 28.6834 14.8757 28.951 15.0364C29.2706 15.2301 29.5901 15.4237 29.9097 15.6132C30.0375 15.6915 30.0974 15.7863 30.0974 15.947C30.0974 16.0294 30.0974 16.1159 30.0974 16.1983C30.0974 16.2271 30.0974 16.256 30.0974 16.2848C30.0974 16.4496 30.0974 16.6145 30.0974 16.7793C30.0974 17.455 30.0974 18.1348 30.0974 18.8105C30.0974 19.7293 30.0974 20.6481 30.0974 21.5711C30.0974 21.6947 30.0974 21.773 30.0814 21.8307C30.0655 21.8801 30.0375 21.9254 29.9976 21.9584C29.9776 21.9749 29.9576 21.9913 29.9336 22.0037C29.9336 22.0037 29.9257 22.0078 29.9217 22.0119C29.7539 22.1149 29.5821 22.2138 29.4144 22.3168H29.3984Z" fill="#0052FF"/>
<path d="M27.4908 18.6534C27.2407 18.3826 26.9281 18.139 26.503 17.893C26.2779 17.7613 26.0453 17.6345 25.8202 17.5103C25.7127 17.4506 25.6026 17.391 25.4951 17.3313C25.4776 17.3214 25.4601 17.309 25.4476 17.2965L25.3851 17.2518L25.4401 17.1971C25.4876 17.1499 25.5351 17.1052 25.5826 17.0629C25.6852 16.9685 25.7827 16.879 25.8652 16.7771C26.0953 16.4988 26.1828 16.1534 26.1078 15.8253C26.0328 15.4973 25.8002 15.2239 25.4726 15.0748C25.2625 14.9804 25.0499 14.9307 24.8399 14.9307C24.5973 14.9307 24.3547 14.9953 24.1146 15.1195C23.842 15.2637 23.6669 15.4799 23.5919 15.7657C23.4793 16.1931 23.5969 16.5783 23.937 16.9113C24.0045 16.976 24.0746 17.0381 24.1496 17.1027C24.1846 17.1325 24.2221 17.1648 24.2596 17.1971L24.3297 17.2593L24.0721 17.396C23.9445 17.463 23.817 17.5301 23.6919 17.5972C23.2117 17.8557 22.7466 18.1142 22.3514 18.4745C21.8713 18.9094 21.6512 19.3791 21.6787 19.9159C21.7262 20.8329 22.414 21.2529 23.0342 21.2529C23.1267 21.2529 23.2193 21.243 23.3093 21.2256C23.8945 21.1113 24.3147 20.6987 24.4022 20.1445C24.5147 19.4288 24.2721 18.8274 23.6794 18.3552L23.5294 18.2359L23.5994 18.1862C23.5994 18.1862 23.6144 18.1738 23.6219 18.1688C23.6369 18.1589 23.6494 18.1465 23.6669 18.139L23.8145 18.062C24.1246 17.9029 24.4422 17.7389 24.7598 17.5823C24.7823 17.5724 24.8073 17.5649 24.8374 17.5649C24.8724 17.5649 24.9099 17.5724 24.9399 17.5873C25.17 17.6991 25.4126 17.8234 25.7302 17.9849C25.8102 18.0247 25.8877 18.0694 25.9628 18.1117C25.9978 18.1316 26.1128 18.1937 26.1128 18.1937L26.0953 18.2459V18.2558C26.0953 18.2558 26.0853 18.2807 26.0653 18.2956L26.0153 18.3329C25.4026 18.7976 25.1575 19.4089 25.285 20.147C25.3976 20.7857 25.9628 21.2504 26.6305 21.2504C26.8881 21.2504 27.1457 21.1784 27.3683 21.0442C27.851 20.7534 28.0535 20.2812 27.986 19.6053C27.9535 19.2822 27.8009 18.9865 27.4883 18.646L27.4908 18.6534ZM23.762 20.3458C23.6344 20.6068 23.4593 20.7584 23.2268 20.8081C23.1792 20.818 23.1292 20.823 23.0817 20.823C22.8166 20.823 22.554 20.6764 22.429 20.4577C22.3189 20.2638 22.2639 20.0501 22.2689 19.824C22.2589 19.4959 22.3639 19.2052 22.579 18.9641C22.6665 18.8647 22.7666 18.7752 22.8616 18.6907C22.9016 18.6559 22.9416 18.6187 22.9792 18.5814C23.0142 18.5491 23.0542 18.5317 23.0967 18.5317C23.1317 18.5317 23.1667 18.5416 23.2042 18.564C23.797 18.9044 24.0571 19.737 23.762 20.3458ZM24.9299 16.9113C24.9049 16.9287 24.8749 16.9312 24.8524 16.9312C24.8173 16.9312 24.7848 16.9213 24.7598 16.9064C24.5823 16.797 24.3597 16.6429 24.2196 16.4069C24.1171 16.2379 24.1321 16.0192 24.1321 16.0192C24.1496 15.6936 24.3747 15.4849 24.7598 15.4401C24.7923 15.4376 24.8223 15.4352 24.8549 15.4352C24.9774 15.4352 25.0974 15.4625 25.21 15.5172C25.37 15.5942 25.4876 15.7284 25.5401 15.8924C25.5926 16.0564 25.5726 16.2304 25.4851 16.382C25.3525 16.6131 25.1475 16.7622 24.9349 16.9064L24.9299 16.9113ZM27.4258 19.7867C27.4183 20.0352 27.3733 20.2315 27.2833 20.403C27.1482 20.6615 26.9031 20.8155 26.6305 20.8155C26.3804 20.8155 26.1503 20.6863 26.0003 20.4651C25.6777 19.988 25.7702 19.225 26.2054 18.7951C26.2829 18.7181 26.3754 18.6435 26.478 18.5714C26.518 18.5441 26.568 18.5416 26.588 18.5416C26.6155 18.5416 26.653 18.5466 26.683 18.5689C26.9931 18.8001 27.3558 19.1306 27.4158 19.6599C27.4183 19.6873 27.4208 19.7146 27.4233 19.7419V19.7817L27.4258 19.7867Z" fill="#0052FF"/>
</svg>
