<svg width="27" height="33" viewBox="0 0 27 33" fill="none" xmlns="http://www.w3.org/2000/svg">
<path d="M21.7192 20.6013L20.8775 19.7497C20.8775 19.8339 20.8775 19.918 20.8775 20.0071C20.8775 21.8737 20.8775 23.7404 20.8775 25.607C20.8677 25.8545 20.7796 26.0179 20.5545 26.1466C19.8057 26.5774 19.0667 27.018 18.3277 27.4537C16.5317 28.5183 14.7307 29.5877 12.9346 30.6522C12.6116 30.8453 12.2886 31.0384 11.9656 31.2315C11.6769 31.4048 11.3881 31.5731 11.0994 31.7464C11.0162 31.7959 10.9379 31.8207 10.8547 31.8257C10.7764 31.8257 10.6932 31.7959 10.61 31.7464C10.3213 31.5731 10.0325 31.4048 9.74379 31.2315C9.42079 31.0384 9.09779 30.8453 8.77479 30.6522C6.97873 29.5828 5.17776 28.5183 3.3817 27.4537C2.64272 27.0131 1.89884 26.5724 1.15496 26.1466C0.934738 26.0179 0.841754 25.8545 0.831966 25.607C0.831966 23.7404 0.831966 21.8737 0.831966 20.0071C0.831966 18.7545 0.831966 17.5068 0.831966 16.2541C0.831966 15.8184 0.831966 15.3827 0.831966 14.952C0.831966 14.8629 0.831966 14.7688 0.831966 14.6797C0.831966 14.5955 0.831966 14.5113 0.831966 14.4271C0.831966 14.1598 0.920057 13.9964 1.14028 13.8627C1.61989 13.5854 2.10438 13.3082 2.57909 13.026C4.54645 11.8624 6.5138 10.6939 8.48116 9.52546C8.21689 9.50566 7.9624 9.38683 7.79112 9.16898L7.67856 9.03034C7.67856 9.03034 7.67856 9.03034 7.67856 9.02539C7.38003 9.20363 7.08639 9.37693 6.78786 9.55517C4.86945 10.6939 2.94614 11.8327 1.02772 12.9715C0.885799 13.0557 0.743876 13.1448 0.601952 13.2389C0.572588 13.2587 0.543225 13.2834 0.513861 13.3032C0.513861 13.3032 0.508967 13.3032 0.504074 13.3082C0.464922 13.3428 0.425771 13.3725 0.38662 13.4072C0.376832 13.4171 0.367044 13.4221 0.36215 13.432C0.332786 13.4617 0.303423 13.4963 0.274059 13.531C0.264272 13.5409 0.254484 13.5508 0.24959 13.5607C0.220226 13.6003 0.190863 13.6449 0.166393 13.6894L0.161499 13.6993C0.0831966 13.8429 0.0293635 14.0063 0.00978784 14.1845C0.00489392 14.2588 0 14.3281 0 14.4024C0 17.8336 0 21.2648 0 24.6959C0 24.9881 0 25.2752 0 25.5673C0 25.5723 0 25.5822 0 25.5871V25.6268C0 26.1565 0.215332 26.5526 0.670467 26.82C1.17943 27.1171 1.68351 27.429 2.19248 27.731C3.61171 28.5727 5.03095 29.4144 6.45018 30.2561C7.61004 30.9443 8.7699 31.6326 9.93465 32.3208C10.0276 32.3752 10.1157 32.4297 10.2087 32.4842C10.3164 32.5485 10.4289 32.598 10.5366 32.6278C10.5464 32.6278 10.5562 32.6277 10.566 32.6327C10.61 32.6426 10.6541 32.6525 10.6932 32.6624C10.7177 32.6624 10.7373 32.6624 10.7617 32.6674C10.7911 32.6674 10.8253 32.6723 10.8547 32.6723C10.8841 32.6723 10.9183 32.6723 10.9477 32.6674C10.9722 32.6674 10.9917 32.6674 11.0162 32.6624C11.0603 32.6575 11.1043 32.6476 11.1435 32.6327C11.1532 32.6327 11.163 32.6327 11.1728 32.6278C11.2805 32.5931 11.393 32.5485 11.5007 32.4842C11.5937 32.4297 11.6818 32.3752 11.7748 32.3208C12.9346 31.6326 14.0945 30.9443 15.2592 30.2561C16.6785 29.4144 18.0977 28.5727 19.5169 27.731C20.0259 27.429 20.53 27.1171 21.039 26.82C21.4941 26.5526 21.7094 26.1565 21.7094 25.6268V25.5871C21.7094 25.5871 21.7094 25.5723 21.7094 25.5673C21.7094 25.2752 21.7094 24.9881 21.7094 24.6959C21.7094 23.3294 21.7094 21.9678 21.7094 20.6013H21.7192Z" fill="#0052FF"/>
<path d="M11.1825 29.7505C11.1727 29.7555 11.1629 29.7654 11.1531 29.7703C11.0699 29.8198 10.9916 29.8446 10.9084 29.8545C10.8937 29.8545 10.879 29.8594 10.8595 29.8594C10.8448 29.8594 10.8301 29.8594 10.8105 29.8545C10.7273 29.8446 10.649 29.8149 10.5658 29.7703C10.556 29.7654 10.5463 29.7555 10.5365 29.7505C9.95899 29.399 9.3815 29.0474 8.80402 28.7058C7.08626 27.6859 5.3636 26.6709 3.64094 25.6559C3.36199 25.4925 3.08793 25.3291 2.80897 25.1657C2.80408 25.1657 2.79918 25.1558 2.7894 25.1558C2.75025 25.131 2.71599 25.1063 2.68173 25.0815C2.68173 25.0815 2.68173 25.0815 2.67684 25.0766C2.61322 25.0172 2.56428 24.9528 2.53981 24.8686C2.51534 24.7745 2.51534 24.6508 2.51534 24.4478C2.51534 22.9674 2.51534 21.482 2.51534 20.0016C2.51534 18.9074 2.51534 17.8181 2.51534 16.7239C2.51534 16.4565 2.51534 16.1892 2.51534 15.9268C2.51534 15.8772 2.51534 15.8327 2.51534 15.7832C2.51534 15.6495 2.51534 15.5109 2.51534 15.3772C2.51534 15.1197 2.60832 14.9662 2.81876 14.8424C3.3473 14.5355 3.87095 14.2235 4.3946 13.9116C4.83505 13.6492 5.2804 13.3917 5.72085 13.1343C6.20046 12.8521 6.68006 12.5649 7.15967 12.2777C7.23307 12.2332 7.30159 12.1935 7.375 12.149C7.43372 12.1143 7.49245 12.0797 7.55118 12.045C8.14334 11.6935 8.73551 11.3419 9.32767 10.9904C9.73876 10.7478 10.1498 10.5052 10.556 10.2527C10.6441 10.1982 10.7322 10.1685 10.8154 10.1586C10.8301 10.1586 10.8497 10.1487 10.8644 10.1537C10.879 10.1537 10.8986 10.1586 10.9133 10.1586C10.9965 10.1685 11.0846 10.1982 11.1727 10.2527C11.3733 10.3814 11.5789 10.5002 11.7844 10.6191L10.5365 9.35156C10.512 9.36146 10.4875 9.36642 10.4631 9.37632C10.4386 9.38622 10.419 9.39117 10.3945 9.40107C10.3358 9.42583 10.2771 9.45059 10.2233 9.48525C9.45002 9.9259 8.68657 10.3864 7.92312 10.8369C6.23961 11.8371 4.55121 12.8372 2.8677 13.8373C2.68663 13.9413 2.50555 14.0453 2.33426 14.1592C2.02595 14.3572 1.81551 14.6246 1.73231 14.9662C1.69316 15.1098 1.67358 15.2633 1.67358 15.4267C1.67358 18.4717 1.67358 21.5167 1.67358 24.5567C1.67358 24.5814 1.67358 24.6112 1.67848 24.6359C1.67848 24.7795 1.69805 24.9231 1.73231 25.0617C1.73231 25.0667 1.73231 25.0766 1.73231 25.0815C1.73231 25.0964 1.7421 25.1063 1.74699 25.1162C1.75678 25.1558 1.77146 25.1904 1.78614 25.2301C1.84487 25.3835 1.93786 25.5123 2.05531 25.6212C2.15319 25.7202 2.26575 25.8093 2.3881 25.8836C2.53981 25.9727 2.68663 26.0619 2.83834 26.151H2.85791C3.269 26.3985 3.68009 26.6461 4.09118 26.8937C6.03896 28.0473 7.98674 29.196 9.93452 30.3496L9.92473 30.3595C9.98346 30.3942 10.0373 30.4288 10.096 30.4635C10.2428 30.5526 10.3945 30.617 10.5512 30.6615C10.605 30.6764 10.6588 30.6863 10.7175 30.6962C10.7224 30.6962 10.7322 30.6962 10.7371 30.6962C10.742 30.6962 10.7469 30.6962 10.7567 30.6962C10.791 30.6962 10.8252 30.6962 10.8595 30.6962C10.8937 30.6962 10.928 30.6962 10.9622 30.6962C10.9671 30.6962 10.972 30.6962 10.9818 30.6962C10.9867 30.6962 10.9965 30.6962 11.0014 30.6962C11.0552 30.6912 11.114 30.6764 11.1678 30.6615C11.3244 30.6219 11.4761 30.5526 11.6229 30.4635C11.6816 30.4288 11.7355 30.3942 11.7942 30.3595C11.7942 30.3595 11.7893 30.3545 11.7844 30.3496C13.7322 29.2009 15.68 28.0473 17.6278 26.8937C18.0388 26.651 18.4499 26.3985 18.861 26.151H18.8806C19.0323 26.0668 19.1791 25.9777 19.3308 25.8886C19.4532 25.8143 19.5657 25.7252 19.6636 25.6262C19.7811 25.5172 19.8692 25.3885 19.9328 25.235C19.9475 25.2003 19.9622 25.1607 19.9719 25.1211C19.9719 25.1063 19.9817 25.0964 19.9866 25.0865C19.9866 25.0815 19.9866 25.0716 19.9866 25.0667C20.0209 24.928 20.0356 24.7894 20.0405 24.6409C20.0405 24.6161 20.0454 24.5864 20.0454 24.5616C20.0454 22.6802 20.0454 20.8037 20.0454 18.9222L19.1938 18.0607C19.1938 18.7093 19.1938 19.353 19.1938 20.0016C19.1938 21.482 19.1938 22.9674 19.1938 24.4478C19.1938 24.6458 19.1938 24.7745 19.1693 24.8686C19.1449 24.9528 19.0959 25.0172 19.0323 25.0766C19.0323 25.0766 19.0323 25.0766 19.0274 25.0815C18.9981 25.1063 18.9589 25.131 18.9197 25.1558C18.9149 25.1558 18.91 25.1657 18.9002 25.1657C18.6212 25.3291 18.3472 25.4925 18.0682 25.6559C16.3455 26.6709 14.6229 27.6859 12.9051 28.7058C12.3227 29.0474 11.7453 29.399 11.1727 29.7505H11.1825Z" fill="#0052FF"/>
<path d="M10.292 7.4902C10.3557 7.62388 10.4535 7.72291 10.5269 7.79717L10.9282 8.20317L12.5481 9.85192L13.1403 10.451L13.2871 10.5996L13.478 10.7926C13.478 10.7926 13.5171 10.8372 13.5416 10.857L13.6101 10.9313L13.6835 11.0105L13.8842 11.2284L14.0114 10.9659L14.0799 10.8273C14.1631 10.654 14.3002 10.456 14.4568 10.2579C14.6329 10.0401 14.8336 9.82221 15.0391 9.62417C15.367 9.31224 15.69 9.05973 15.8907 8.98546L16.1843 8.87654L16.3556 8.81217L16.3409 8.80227L16.0913 8.55966L16.013 8.48539L15.9249 8.40122C15.8809 8.35666 15.8368 8.31705 15.7977 8.27744C15.7047 8.18337 15.6068 8.08434 15.5138 7.99027C15.4111 7.92095 15.323 7.83183 15.2545 7.72786C14.4714 6.93071 13.6884 6.13852 12.9054 5.34138C12.7977 5.23245 12.646 5.10372 12.4209 5.06411C12.1077 5.0146 11.8238 5.11363 11.5693 5.36614C11.2708 5.66321 10.9723 5.97018 10.6738 6.27221L10.5514 6.39599C10.4976 6.45045 10.4437 6.51481 10.3997 6.57918C10.2382 6.81189 10.1795 7.0743 10.2382 7.33671C10.2529 7.39613 10.2725 7.45059 10.2969 7.5001L10.292 7.4902ZM10.894 6.93071C10.9233 6.89111 10.9527 6.85645 10.9821 6.82179L11.1044 6.69801C11.3981 6.39599 11.6966 6.09396 11.9951 5.79689C12.1028 5.68796 12.1909 5.65826 12.2594 5.65826C12.279 5.65826 12.2985 5.65826 12.3132 5.65826C12.3524 5.66321 12.3915 5.68301 12.4649 5.76223C13.3997 6.71286 14.3344 7.66349 15.2691 8.60917C15.0245 8.77751 14.7455 9.02012 14.4861 9.28253C14.2806 9.49048 14.0897 9.70834 13.9233 9.93114C13.8597 10.0104 13.7912 10.0945 13.7374 10.1737L12.9005 9.32214L10.9919 7.38623L10.9576 7.35157C10.9576 7.35157 10.9576 7.35157 10.9527 7.34662C10.894 7.2872 10.8402 7.23274 10.8304 7.19313C10.8108 7.09906 10.8304 7.01489 10.894 6.92576V6.93071Z" fill="#0052FF"/>
<path d="M11.1679 3.9548C11.5056 3.84092 11.8432 3.72209 12.1809 3.60326C12.5431 3.47948 12.8661 3.54385 13.1499 3.80626C13.5219 4.14294 13.8987 4.47962 14.2706 4.81135C14.3294 4.86582 14.3881 4.92523 14.4419 4.97969C14.4468 4.94008 14.4419 4.91533 14.4321 4.89057C14.2462 4.35584 14.0553 3.82606 13.884 3.29133C13.7861 2.98436 13.7861 2.68234 14.021 2.41497C14.393 1.99412 14.7551 1.56337 15.1222 1.13756C15.1613 1.08805 15.2152 1.05339 15.2592 1.00883C15.2543 1.00388 15.2445 0.993979 15.2396 0.989028C15.2152 0.99893 15.1956 1.00883 15.1711 1.01378C14.6572 1.19698 14.1483 1.38017 13.6295 1.55842C13.2527 1.68715 12.9052 1.62773 12.6018 1.36037C12.3473 1.13756 12.083 0.91476 11.8383 0.682054C11.6622 0.518664 11.5056 0.330518 11.3392 0.157227C11.3245 0.167129 11.3147 0.177031 11.3 0.186934C11.349 0.315665 11.3979 0.439445 11.4419 0.573127C11.5937 1.03854 11.7454 1.50395 11.8971 1.96937C11.9901 2.26149 11.9411 2.52885 11.7405 2.76156C11.4566 3.09329 11.1728 3.42502 10.8889 3.7518C10.7666 3.89043 10.6344 4.01916 10.5072 4.15779C10.5512 4.16275 10.5904 4.15284 10.6247 4.13799C10.7959 4.04887 10.9721 3.98945 11.1581 3.9548H11.1679Z" fill="#0052FF"/>
<path d="M7.12078 7.34697C7.33612 7.31231 7.52209 7.34697 7.6738 7.52026C7.85487 7.72326 8.04084 7.92626 8.22192 8.13421C8.32958 8.25304 8.42746 8.38177 8.53513 8.51545C8.54002 8.52535 8.54491 8.5303 8.5547 8.53525C8.5547 8.5204 8.5547 8.51545 8.5547 8.50555C8.5547 8.49564 8.5547 8.48079 8.5547 8.47089C8.48129 8.1144 8.40299 7.75792 8.34426 7.40143C8.29532 7.12416 8.28554 6.85185 8.54002 6.6439C8.76514 6.4607 8.97558 6.25275 9.19091 6.06461C9.2839 5.98044 9.39156 5.90617 9.48944 5.82695C9.11261 5.89627 8.74067 5.96063 8.37363 6.0349C8.05063 6.09926 7.77657 6.0349 7.56124 5.75763C7.33122 5.46551 7.09632 5.18329 6.86141 4.90107C6.84673 4.88622 6.83204 4.87137 6.80757 4.85156C6.91524 5.31202 7.03269 5.75268 7.05716 6.20819C7.06695 6.40624 7.00822 6.56963 6.8663 6.70331C6.69991 6.86175 6.53351 7.02019 6.36223 7.16872C6.20562 7.30736 6.03923 7.43609 5.85815 7.58462C6.01476 7.54997 6.142 7.52026 6.27414 7.4955C6.55798 7.44104 6.84183 7.39153 7.13057 7.34202L7.12078 7.34697Z" fill="#0052FF"/>
<path d="M16.1696 7.14802C16.1696 7.14802 16.194 7.14307 16.2038 7.13812C16.4632 7.0589 16.7177 6.97473 16.9771 6.90046C17.1239 6.8559 17.2609 6.8856 17.3784 6.98958C17.5888 7.18268 17.7992 7.37577 18.0048 7.56887C18.0341 7.59363 18.0537 7.62828 18.0831 7.66294C17.9901 7.36092 17.902 7.0787 17.8188 6.79153C17.7601 6.59844 17.7894 6.42514 17.9314 6.27166C18.0195 6.17263 18.1027 6.06371 18.1907 5.96963C18.3082 5.84585 18.4305 5.72702 18.5529 5.6082C18.548 5.59829 18.5431 5.59334 18.5382 5.58344C18.5186 5.59334 18.4942 5.59829 18.4746 5.6082C18.2103 5.69237 17.946 5.78149 17.6769 5.86071C17.4909 5.92012 17.3196 5.88051 17.1728 5.74188C17.0064 5.58344 16.8351 5.425 16.6687 5.26656C16.6198 5.222 16.5758 5.17249 16.5317 5.12793C16.5268 5.12793 16.5219 5.13288 16.517 5.13783C16.5268 5.16754 16.5366 5.2022 16.5464 5.2319C16.6296 5.51412 16.7177 5.79139 16.796 6.07361C16.8351 6.20729 16.8107 6.33107 16.7177 6.44C16.5904 6.58358 16.4632 6.73212 16.3359 6.8757C16.2723 6.94502 16.2087 7.01434 16.1451 7.0787C16.1206 7.10346 16.101 7.12821 16.0766 7.15297C16.0717 7.15792 16.0668 7.16287 16.0619 7.16782C16.0717 7.16782 16.0815 7.16782 16.0913 7.16782C16.1206 7.16782 16.1451 7.16287 16.1696 7.15297V7.14802Z" fill="#0052FF"/>
<path d="M26.0699 18.6456C25.9818 18.5565 25.8888 18.4673 25.8007 18.3733L21.7094 14.2341L20.1189 12.6249L17.9215 10.4018L17.6132 10.0899C17.486 9.96119 17.1923 9.66411 16.9868 9.45121C16.8791 9.34229 16.7176 9.32248 16.5855 9.4017C16.3163 9.57004 15.8122 9.87702 15.3179 10.4216C14.3 11.5456 14.5007 11.7832 14.5007 11.7832C14.5007 11.7832 14.7405 11.9961 14.7698 12.0308C14.7992 12.0605 14.8237 12.0902 14.853 12.1199L15.4207 12.6942L15.6312 12.9071L16.0912 13.3726L16.5757 13.8627C17.1825 14.4767 17.7894 15.0906 18.3962 15.7046C18.6164 15.9274 18.8416 16.1551 19.0618 16.3779L19.1988 16.5166C19.4827 16.8037 19.7665 17.0909 20.0504 17.3781C20.3342 17.6652 20.5985 17.9326 20.8725 18.2099C20.9949 18.3337 21.1123 18.4525 21.2347 18.5763C21.3962 18.7397 21.5528 18.8981 21.7143 19.0615C21.7583 19.106 21.8024 19.1506 21.8464 19.1952C22.1058 19.4576 22.3603 19.715 22.6197 19.9775C22.8888 20.2498 23.1678 20.5221 23.4467 20.7944C23.5446 20.8934 23.6425 20.9875 23.7453 21.0865L23.9215 21.2351C23.9606 21.2549 24.0047 21.2598 24.0438 21.2598C24.1025 21.2598 24.1613 21.245 24.2151 21.2103L24.4989 20.9677C25.1303 20.4033 25.6588 19.8141 26.1188 19.1803C26.2363 19.0169 26.2069 18.7892 26.065 18.6505L26.0699 18.6456ZM15.3962 11.2832C15.455 11.199 15.5137 11.1247 15.5822 11.0554C15.6116 11.0257 15.6458 10.996 15.6752 10.9663C15.8807 10.7583 16.0912 10.5553 16.3065 10.3622C16.3408 10.3325 16.375 10.2979 16.4093 10.2682L16.5659 10.1246C16.5659 10.1246 16.6344 10.08 16.6785 10.0503C16.6834 10.0503 16.6931 10.0454 16.698 10.0404C16.8595 10.2038 17.021 10.3672 17.1825 10.5306L18.0243 11.3822L20.3391 13.7241L20.8676 14.2588L21.7192 15.1203L25.1988 18.6406L25.3652 18.809C25.4141 18.8585 25.463 18.913 25.5169 18.9625C25.1009 19.517 24.6262 20.0319 24.0634 20.532C23.9998 20.4726 23.9361 20.4082 23.8774 20.3488C23.6033 20.0765 23.3293 19.8091 23.0601 19.5368C22.6148 19.0862 22.1694 18.6357 21.7241 18.1851C21.4451 17.9029 21.1662 17.6207 20.8823 17.3335C20.6083 17.0563 20.3342 16.779 20.0602 16.5017C19.8204 16.2591 19.5805 16.0165 19.3407 15.7739C19.2967 15.7293 19.2575 15.6897 19.2135 15.6452L18.8416 15.2689C18.4647 14.8876 18.0928 14.5113 17.716 14.1301C17.486 13.8974 17.251 13.6597 17.021 13.427L16.5365 12.9369L16.0374 12.4318L15.3914 11.7783L15.2935 11.6793C15.269 11.6545 15.2445 11.6248 15.2201 11.6C15.2152 11.5951 15.2054 11.5852 15.2005 11.5802C15.2201 11.5505 15.2396 11.5208 15.2641 11.4911C15.3131 11.4218 15.3571 11.3525 15.406 11.2881" fill="#0052FF"/>
<path d="M15.081 20.1342C14.7043 19.7321 14.2334 19.3706 13.5929 19.0054C13.2539 18.8099 12.9035 18.6218 12.5644 18.4373C12.4025 18.3488 12.2367 18.2603 12.0747 18.1717C12.0483 18.157 12.0219 18.1385 12.0031 18.1201L11.9089 18.0537L11.9918 17.9726C12.0634 17.9025 12.135 17.8361 12.2065 17.7734C12.361 17.6332 12.5079 17.5004 12.6323 17.3492C12.9789 16.936 13.1107 16.4233 12.9977 15.9364C12.8847 15.4494 12.5343 15.0437 12.0408 14.8223C11.7243 14.6822 11.4041 14.6084 11.0876 14.6084C10.7222 14.6084 10.3568 14.7043 9.99511 14.8887C9.58447 15.1027 9.32076 15.4236 9.20774 15.8478C9.03821 16.4823 9.21527 17.0541 9.72763 17.5483C9.82935 17.6443 9.93484 17.7365 10.0479 17.8324C10.1006 17.8766 10.1571 17.9246 10.2136 17.9726L10.3191 18.0648L9.93107 18.2677C9.73893 18.3673 9.5468 18.4669 9.35843 18.5664C8.6351 18.9501 7.93437 19.3337 7.33913 19.8686C6.6158 20.5141 6.28427 21.2113 6.32572 22.0081C6.3973 23.3692 7.43332 23.9926 8.36762 23.9926C8.50701 23.9926 8.6464 23.9779 8.78203 23.9521C9.66359 23.7824 10.2965 23.17 10.4284 22.3474C10.5979 21.2851 10.2325 20.3924 9.33959 19.6915L9.11355 19.5145L9.21904 19.4407C9.21904 19.4407 9.24164 19.4222 9.25295 19.4149C9.27555 19.4001 9.29439 19.3817 9.32076 19.3706L9.54303 19.2562C10.0102 19.0202 10.4886 18.7767 10.9671 18.5443C11.001 18.5296 11.0387 18.5185 11.0839 18.5185C11.1366 18.5185 11.1931 18.5296 11.2383 18.5517C11.5849 18.7177 11.9504 18.9021 12.4288 19.1419C12.5494 19.2009 12.6662 19.2673 12.7792 19.33C12.8319 19.3595 13.0052 19.4518 13.0052 19.4518L12.9789 19.5292V19.544C12.9789 19.544 12.9638 19.5809 12.9336 19.603L12.8583 19.6583C11.9353 20.3481 11.5661 21.2556 11.7582 22.3511C11.9278 23.2991 12.7792 23.9889 13.7851 23.9889C14.1731 23.9889 14.5611 23.882 14.8964 23.6828C15.6235 23.2512 15.9287 22.5503 15.827 21.547C15.778 21.0674 15.5482 20.6285 15.0773 20.1231L15.081 20.1342ZM9.46392 22.6462C9.27178 23.0335 9.00807 23.2586 8.6577 23.3323C8.58613 23.3471 8.51078 23.3545 8.4392 23.3545C8.03986 23.3545 7.64429 23.1368 7.45592 22.8122C7.29016 22.5245 7.20728 22.2073 7.21481 21.8716C7.19974 21.3847 7.35797 20.9531 7.68196 20.5953C7.81382 20.4477 7.96451 20.3149 8.10767 20.1895C8.16795 20.1379 8.22823 20.0825 8.28474 20.0272C8.33748 19.9792 8.39776 19.9534 8.4618 19.9534C8.51455 19.9534 8.56729 19.9682 8.6238 20.0014C9.51666 20.5067 9.90847 21.7425 9.46392 22.6462ZM11.2233 17.5483C11.1856 17.5742 11.1404 17.5779 11.1065 17.5779C11.0537 17.5779 11.0048 17.5631 10.9671 17.541C10.6996 17.3787 10.3643 17.15 10.1533 16.7995C9.99888 16.5487 10.0215 16.2241 10.0215 16.2241C10.0479 15.7409 10.3869 15.431 10.9671 15.3646C11.0161 15.3609 11.0613 15.3572 11.1102 15.3572C11.2948 15.3572 11.4757 15.3978 11.6452 15.4789C11.8863 15.5933 12.0634 15.7925 12.1425 16.036C12.2216 16.2794 12.1915 16.5376 12.0596 16.7626C11.86 17.1057 11.551 17.327 11.2308 17.541L11.2233 17.5483ZM14.9831 21.8163C14.9718 22.1851 14.904 22.4765 14.7683 22.7311C14.5649 23.1147 14.1957 23.3434 13.7851 23.3434C13.4083 23.3434 13.0617 23.1516 12.8357 22.8233C12.3497 22.115 12.4891 20.9826 13.1446 20.3444C13.2614 20.2301 13.4008 20.1194 13.5553 20.0124C13.6155 19.9719 13.6909 19.9682 13.721 19.9682C13.7625 19.9682 13.819 19.9756 13.8642 20.0088C14.3313 20.3518 14.8776 20.8424 14.968 21.6281C14.9718 21.6687 14.9755 21.7093 14.9793 21.7499V21.8089L14.9831 21.8163Z" fill="#0052FF"/>
</svg>
