<svg version="1.0" xmlns="http://www.w3.org/2000/svg"
 width="52px" height="52px" viewBox="0 0 512.000000 512.000000"
 preserveAspectRatio="xMidYMid meet">

<g transform="translate(0.000000,512.000000) scale(0.100000,-0.100000)"
fill="#0052FF" stroke="none">
<path d="M2403 5106 c-297 -57 -539 -238 -668 -501 -73 -147 -89 -222 -89
-410 1 -144 3 -169 27 -246 51 -167 110 -271 221 -388 109 -114 248 -197 413
-248 79 -24 104 -27 248 -27 124 -1 175 3 225 17 118 32 202 69 289 128 361
243 502 686 351 1101 -53 146 -154 283 -282 383 -89 70 -248 149 -353 176
-103 26 -284 33 -382 15z m362 -131 c153 -42 312 -144 411 -263 71 -86 148
-243 168 -344 20 -99 20 -247 0 -346 -19 -99 -97 -257 -164 -339 -94 -113
-236 -206 -390 -255 -65 -20 -95 -23 -230 -23 -173 0 -240 15 -370 80 -262
132 -430 407 -430 708 0 407 265 720 680 801 50 9 266 -3 325 -19z"/>
<path d="M2370 4642 c0 -79 -14 -95 -87 -102 l-58 -5 -3 -324 c-2 -230 1 -328
9 -337 7 -8 31 -14 60 -14 61 0 79 -22 79 -97 l0 -53 40 0 40 0 0 65 c0 53 3
66 19 75 28 14 174 13 189 -2 7 -7 12 -39 12 -75 l0 -63 40 0 40 0 0 65 c0 71
3 75 81 134 73 56 86 156 32 248 l-27 46 26 46 c34 62 42 101 28 152 -12 42
-54 91 -111 130 -21 14 -25 27 -29 90 l-5 74 -35 0 -35 0 -3 -60 c-4 -85 -16
-95 -114 -95 -102 0 -118 14 -118 100 l0 60 -35 0 -35 0 0 -58z m416 -216 c28
-28 34 -41 34 -77 0 -47 -19 -79 -57 -98 -14 -7 -98 -11 -237 -11 -203 0 -216
1 -226 19 -14 28 -13 174 2 189 9 9 74 12 231 12 l219 0 34 -34z m5 -304 c55
-62 31 -159 -45 -181 -19 -5 -123 -6 -232 -4 -166 4 -201 8 -211 21 -8 10 -13
46 -13 93 0 115 -11 111 252 107 l220 -3 29 -33z"/>
<path d="M3710 4720 l0 -60 60 0 60 0 0 60 0 60 -60 0 -60 0 0 -60z"/>
<path d="M1290 4630 l0 -60 60 0 60 0 0 60 0 60 -60 0 -60 0 0 -60z"/>
<path d="M4310 4630 l0 -60 60 0 60 0 0 60 0 60 -60 0 -60 0 0 -60z"/>
<path d="M774 4597 c-3 -8 -4 -36 -2 -63 l3 -49 60 0 60 0 0 60 0 60 -58 3
c-42 2 -59 -1 -63 -11z"/>
<path d="M602 4113 l3 -58 58 -3 57 -3 0 61 0 60 -60 0 -61 0 3 -57z"/>
<path d="M4482 4113 l3 -58 60 0 60 0 3 58 3 57 -66 0 -66 0 3 -57z"/>
<path d="M806 3820 c-107 -17 -208 -50 -306 -100 -504 -260 -656 -907 -318
-1362 188 -255 536 -408 839 -369 222 29 395 114 554 275 130 131 214 288 251
467 22 111 15 313 -15 417 -45 155 -112 270 -226 391 -167 176 -382 274 -625
285 -52 3 -122 1 -154 -4z m234 -121 c325 -52 581 -288 661 -609 28 -112 23
-308 -11 -415 -120 -377 -463 -604 -851 -564 -331 34 -607 272 -696 599 -28
103 -25 312 5 410 124 395 503 642 892 579z"/>
<path d="M877 3415 c-8 -8 -81 -123 -162 -255 -111 -182 -146 -246 -141 -263
7 -28 319 -222 343 -213 8 4 85 49 169 102 130 81 154 99 154 120 0 21 -124
233 -267 457 -44 69 -67 82 -96 52z m181 -280 c61 -99 108 -182 106 -184 -2
-2 -55 16 -119 40 l-115 43 0 156 c0 97 4 149 10 140 5 -8 58 -96 118 -195z
m-178 47 l0 -149 -117 -45 c-65 -25 -120 -44 -121 -43 -4 4 228 385 234 385 2
0 4 -67 4 -148z m278 -287 c3 -3 3 -7 1 -9 -9 -8 -220 -136 -224 -136 -3 0 -5
54 -5 119 l0 119 111 -43 c61 -24 114 -47 117 -50z m-278 -30 c0 -63 -2 -115
-4 -115 -6 0 -209 129 -219 139 -7 7 181 88 211 90 9 1 12 -28 12 -114z"/>
<path d="M640 2735 c-18 -21 -11 -34 122 -210 155 -205 139 -206 297 8 66 91
121 171 121 179 0 18 -20 38 -39 38 -8 0 -57 -26 -109 -57 -62 -37 -105 -57
-126 -57 -20 0 -65 20 -126 57 -102 61 -120 66 -140 42z m170 -115 c14 -10 35
-21 48 -24 20 -7 22 -13 22 -77 l0 -71 -23 29 c-13 15 -41 53 -62 83 -22 30
-51 71 -65 90 l-25 34 40 -24 c22 -13 51 -31 65 -40z m219 -47 c-45 -60 -86
-112 -90 -118 -5 -5 -9 22 -9 63 0 66 2 72 23 77 12 3 49 23 82 45 33 21 64
39 68 39 5 1 -28 -47 -74 -106z"/>
<path d="M4078 3820 c-98 -16 -180 -40 -265 -80 -102 -48 -161 -88 -242 -164
-196 -187 -291 -404 -291 -667 0 -250 86 -462 259 -642 350 -364 932 -377
1295 -28 464 447 342 1209 -239 1491 -55 27 -138 58 -185 69 -99 24 -251 34
-332 21z m236 -120 c408 -59 711 -432 683 -843 -24 -348 -266 -639 -603 -728
-109 -28 -289 -29 -396 0 -284 75 -505 298 -578 585 -27 107 -27 271 0 384 96
398 485 661 894 602z"/>
<path d="M4070 3321 c-5 -11 -10 -40 -10 -64 0 -44 -1 -46 -54 -75 -57 -32
-98 -79 -137 -152 -35 -66 -34 -192 3 -271 31 -67 89 -128 146 -155 41 -19 41
-20 42 -70 0 -53 19 -84 53 -84 23 0 47 39 47 77 0 23 5 33 15 33 11 0 15 -11
15 -43 0 -46 13 -67 41 -67 31 0 49 29 49 79 0 45 2 48 37 65 21 10 55 31 76
48 32 25 38 36 35 62 -5 46 -43 47 -103 2 -56 -43 -113 -60 -174 -51 -162 24
-251 157 -207 308 20 70 65 123 131 153 87 41 173 30 254 -32 24 -19 50 -34
57 -34 29 0 44 14 44 40 0 32 -45 77 -110 110 -38 19 -40 23 -40 68 0 52 -12
72 -45 72 -32 0 -45 -20 -45 -67 0 -57 -25 -59 -33 -3 -3 23 -11 47 -17 55
-18 21 -57 18 -70 -4z"/>
<path d="M170 1960 l0 -60 60 0 60 0 0 60 0 60 -60 0 -60 0 0 -60z"/>
<path d="M4830 1960 l0 -60 60 0 60 0 0 60 0 60 -60 0 -60 0 0 -60z"/>
<path d="M1165 1824 c-209 -47 -397 -161 -524 -320 -78 -96 -123 -177 -160
-290 -160 -479 93 -1000 564 -1161 207 -71 420 -68 627 7 274 100 486 332 570
625 20 69 23 102 22 240 0 144 -3 169 -27 248 -53 171 -125 285 -264 417 -105
100 -216 167 -353 212 -85 28 -110 31 -240 34 -105 3 -164 -1 -215 -12z m430
-138 c267 -87 467 -301 535 -570 24 -95 27 -268 6 -367 -33 -154 -119 -303
-238 -415 -164 -153 -357 -223 -583 -211 -134 8 -203 25 -320 82 -163 79 -279
196 -360 360 -54 109 -74 181 -82 301 -23 346 171 663 489 796 113 48 176 58
333 54 118 -3 153 -7 220 -30z"/>
<path d="M1037 1186 c-189 -51 -245 -306 -97 -440 46 -42 134 -71 183 -61 49
11 138 61 193 109 l49 43 49 -43 c27 -24 77 -58 110 -76 106 -56 208 -39 288
50 45 49 62 100 62 177 -1 101 -52 183 -140 225 -93 45 -187 22 -309 -78 l-60
-49 -60 49 c-64 52 -141 93 -190 102 -16 3 -52 -1 -78 -8z m171 -69 c30 -17
111 -88 181 -158 161 -160 206 -184 319 -176 l77 6 -30 -25 c-39 -31 -97 -47
-146 -39 -62 11 -155 79 -280 205 -133 134 -191 170 -275 170 -29 0 -64 -4
-78 -10 -31 -11 -34 0 -7 24 59 54 154 55 239 3z m529 12 c80 -50 128 -174 92
-242 -16 -29 -50 -56 -71 -57 -16 0 -16 3 2 33 24 38 26 106 5 146 -22 43 -94
101 -142 114 -24 6 -43 14 -43 18 0 26 109 17 157 -12z m-152 -38 c3 -6 -5
-15 -17 -22 -42 -22 -98 -70 -98 -85 0 -22 18 -17 58 16 20 16 54 36 75 45 36
15 41 15 75 -2 52 -25 79 -81 63 -132 -25 -84 -98 -108 -177 -59 -50 32 -141
114 -155 140 -21 38 68 107 138 108 17 0 34 -4 38 -9z m-428 -61 c28 -16 82
-60 118 -97 l68 -67 -44 -37 c-44 -39 -110 -59 -145 -45 -13 5 -8 13 27 36 72
47 82 58 75 76 -6 15 -8 15 -29 0 -102 -74 -131 -85 -176 -62 -42 22 -64 59
-64 106 0 49 24 87 66 105 43 19 45 19 104 -15z m-188 -17 c-37 -73 -19 -146
52 -207 24 -20 63 -42 87 -49 50 -13 53 -23 12 -32 -42 -9 -130 19 -162 52
-38 39 -68 110 -68 162 0 36 6 49 34 77 19 19 41 34 49 34 12 0 12 -6 -4 -37z"/>
<path d="M3590 1825 c-366 -75 -651 -359 -727 -723 -22 -107 -14 -328 16 -430
76 -262 248 -465 492 -582 134 -64 220 -83 384 -83 165 -1 268 20 401 82 105
50 162 89 248 170 124 119 211 267 258 441 34 127 32 318 -5 452 -47 172 -128
309 -258 434 -184 176 -383 255 -638 253 -58 0 -135 -7 -171 -14z m353 -121
c40 -9 110 -34 157 -56 211 -98 362 -270 436 -498 24 -76 27 -100 28 -225 0
-87 -5 -157 -13 -185 -86 -298 -294 -511 -578 -592 -103 -29 -304 -31 -403 -4
-231 63 -414 209 -514 408 -64 128 -86 222 -86 368 0 146 22 240 87 370 40 81
62 110 148 196 87 87 113 107 195 148 52 25 129 55 170 66 96 24 272 26 373 4z"/>
<path d="M3658 1430 c-32 -11 -72 -29 -90 -40 -26 -16 -51 -20 -115 -20 -94 0
-98 -4 -57 -64 l26 -38 -31 -57 c-77 -146 -81 -302 -9 -445 35 -69 103 -145
165 -183 33 -21 54 -46 84 -101 45 -82 52 -82 84 -11 18 39 21 41 55 35 107
-17 275 47 369 141 84 85 141 217 141 330 0 25 13 56 40 100 23 35 38 68 34
74 -3 6 -28 9 -56 8 l-50 -3 -31 55 c-62 108 -173 194 -292 225 -74 20 -199
17 -267 -6z m211 -10 c139 -23 275 -121 331 -237 24 -51 25 -52 71 -55 l46 -3
-73 -115 c-40 -63 -77 -115 -83 -115 -12 0 -170 208 -164 217 2 5 22 8 44 8
45 0 47 5 17 47 -63 85 -150 127 -261 126 l-77 0 6 33 6 34 -66 0 c-36 0 -66
4 -66 9 0 17 108 50 195 60 6 0 39 -4 74 -9z m-174 -97 c-6 -16 -59 -158 -87
-233 l-9 -25 -34 40 -34 40 -17 -40 c-22 -50 -30 -157 -15 -212 6 -23 27 -64
46 -92 22 -33 29 -51 20 -51 -8 0 -25 -4 -40 -10 l-25 -10 30 -60 c25 -50 27
-59 13 -51 -30 16 -110 105 -131 147 -74 145 -67 330 17 454 29 43 29 45 12
70 -10 14 -21 31 -25 38 -6 9 25 12 139 12 136 0 147 -1 140 -17z m227 -83
c58 -28 113 -74 104 -88 -4 -7 -25 -12 -47 -12 -21 0 -39 -3 -39 -7 0 -4 34
-51 75 -104 69 -91 73 -99 65 -129 -16 -55 -58 -117 -102 -149 -39 -29 -136
-67 -145 -57 -3 2 5 22 16 44 12 23 17 43 13 46 -5 3 -59 -2 -120 -11 -62 -8
-119 -12 -127 -9 -23 8 -74 86 -86 130 -14 52 -14 132 1 170 l11 29 25 -37
c14 -20 30 -36 36 -34 6 2 30 53 52 114 39 101 44 110 76 122 46 16 138 8 192
-18z m313 -362 c-23 -91 -53 -145 -115 -209 -89 -91 -187 -132 -320 -133 l-84
-1 -21 -37 -21 -37 -68 125 c-37 70 -66 128 -64 129 8 9 278 40 278 33 0 -5
-7 -22 -15 -39 -21 -41 -12 -52 39 -44 105 17 189 77 237 168 l32 64 27 -30
26 -30 40 61 c21 34 40 57 42 52 2 -5 -4 -37 -13 -72z"/>
<path d="M5000 1610 l0 -60 60 0 60 0 0 60 0 60 -60 0 -60 0 0 -60z"/>
<path d="M0 1525 l0 -55 60 0 60 0 0 55 0 55 -60 0 -60 0 0 -55z"/>
<path d="M4830 1180 l0 -60 60 0 60 0 0 60 0 60 -60 0 -60 0 0 -60z"/>
<path d="M84 1147 c-3 -8 -4 -36 -2 -63 l3 -49 60 0 60 0 0 60 0 60 -58 3
c-42 2 -59 -1 -63 -11z"/>
<path d="M2240 230 l0 -60 60 0 60 0 0 60 0 60 -60 0 -60 0 0 -60z"/>
<path d="M2760 230 l0 -61 58 3 57 3 3 58 3 57 -61 0 -60 0 0 -60z"/>
<path d="M2500 60 l0 -60 60 0 60 0 0 60 0 60 -60 0 -60 0 0 -60z"/>
</g>
</svg>
