<svg version="1.0" xmlns="http://www.w3.org/2000/svg"
 width="52px" height="52px" viewBox="0 0 512.000000 512.000000"
 preserveAspectRatio="xMidYMid meet">

<g transform="translate(0.000000,512.000000) scale(0.100000,-0.100000)"
fill="#0052FF" stroke="none">
<path d="M1280 5113 c-33 -12 -40 -36 -40 -147 0 -68 -5 -120 -13 -135 -9 -18
-48 -39 -151 -83 -76 -32 -148 -58 -158 -58 -11 0 -60 39 -113 90 -51 50 -96
90 -100 90 -24 0 -85 -53 -257 -228 -155 -156 -198 -205 -198 -225 0 -19 23
-50 85 -115 58 -61 85 -97 85 -113 0 -13 -26 -84 -57 -158 -44 -102 -63 -135
-81 -142 -13 -5 -70 -9 -127 -9 -86 0 -107 -3 -126 -19 l-24 -19 -3 -283 c-2
-198 1 -291 9 -311 15 -37 57 -48 186 -48 116 0 107 6 144 -101 12 -35 37 -94
55 -131 19 -37 34 -73 34 -81 0 -7 -32 -44 -71 -82 -81 -80 -113 -127 -105
-153 3 -9 100 -111 214 -225 144 -143 215 -207 230 -207 14 0 56 33 116 90 52
50 100 90 107 90 22 0 294 -123 307 -138 8 -11 12 -54 12 -133 0 -170 -22
-159 336 -159 349 0 324 -11 324 149 0 60 4 120 9 133 7 19 41 38 155 86 81
34 151 62 157 62 6 0 50 -38 98 -84 98 -94 120 -105 159 -81 15 9 114 105 220
213 142 145 192 202 192 220 0 16 -27 53 -85 115 -52 56 -85 100 -85 113 0 32
107 287 127 302 11 8 56 12 135 12 103 0 120 2 137 19 28 28 33 93 29 368 -3
216 -5 244 -21 260 -14 15 -41 19 -147 23 -70 3 -131 8 -135 12 -16 16 -125
281 -125 305 0 20 21 48 85 114 62 63 85 93 85 112 0 35 -404 447 -439 447
-16 0 -50 -26 -105 -79 -119 -116 -103 -113 -270 -45 -77 31 -145 61 -151 66
-5 5 -12 68 -15 139 -7 183 20 169 -334 168 -154 0 -288 -3 -296 -6z m488
-135 c8 -8 12 -49 12 -121 0 -59 4 -117 10 -127 6 -12 46 -30 112 -50 56 -18
155 -58 220 -91 95 -47 122 -57 140 -50 13 5 54 41 93 80 40 41 78 71 90 71
29 0 265 -238 265 -268 0 -16 -27 -51 -80 -107 -44 -46 -80 -86 -80 -89 0 -3
29 -66 65 -139 35 -72 75 -168 87 -212 37 -126 28 -119 165 -123 65 -2 124 -9
131 -14 9 -8 12 -58 12 -188 0 -130 -3 -180 -12 -188 -7 -6 -64 -12 -125 -14
-133 -4 -143 -10 -167 -105 -22 -90 -71 -210 -111 -278 -57 -94 -58 -92 34
-188 56 -58 81 -92 81 -109 0 -18 -32 -56 -123 -146 -68 -67 -127 -122 -131
-122 -20 0 -68 36 -126 94 -75 76 -91 80 -159 36 -68 -43 -168 -86 -266 -115
-72 -21 -121 -39 -126 -48 -1 -1 -5 -58 -8 -127 l-6 -125 -189 -3 c-145 -2
-191 1 -198 10 -4 7 -8 59 -8 115 0 131 -9 142 -135 178 -49 14 -144 53 -210
86 -66 32 -127 59 -135 59 -9 0 -49 -34 -90 -75 -53 -53 -82 -75 -99 -75 -19
0 -57 32 -148 123 -68 68 -123 131 -123 141 0 9 36 55 80 101 44 46 80 90 80
98 0 8 -25 63 -55 122 -30 60 -71 159 -91 222 -20 62 -42 117 -48 121 -6 4
-65 9 -131 12 l-120 5 -3 189 c-2 145 1 191 10 198 7 4 54 8 104 8 50 0 105 5
122 11 29 10 34 19 58 97 14 48 55 148 91 224 76 160 78 149 -34 254 -59 54
-74 75 -69 90 3 10 64 77 135 148 150 149 131 147 252 30 42 -41 81 -74 85
-74 5 0 66 29 135 64 70 35 164 73 210 85 133 36 129 31 129 169 0 78 4 122
12 130 8 8 66 12 193 12 127 0 185 -4 193 -12z"/>
<path d="M936 4169 c-91 -79 -200 -266 -238 -406 -32 -118 -30 -305 5 -436
108 -407 456 -678 872 -678 351 -1 655 196 811 524 58 123 77 213 76 367 0
228 -37 326 -115 306 -44 -11 -50 -36 -32 -128 22 -104 21 -252 -1 -348 -37
-164 -72 -188 -138 -94 -42 61 -102 105 -180 130 -28 9 -55 21 -61 26 -6 5
-12 96 -15 211 -5 196 -6 204 -33 259 -35 72 -110 140 -185 169 -85 33 -198
32 -274 -3 -170 -79 -228 -217 -214 -504 5 -92 3 -124 -6 -131 -7 -5 -39 -17
-70 -27 -72 -21 -133 -67 -178 -133 -68 -100 -91 -82 -135 107 -19 84 -19 257
0 339 23 97 84 216 158 310 37 46 67 93 67 103 0 23 -43 68 -64 68 -9 0 -31
-14 -50 -31z m743 -229 c22 -11 51 -34 64 -52 41 -54 49 -101 45 -258 -3 -137
-5 -148 -30 -192 -56 -95 -189 -126 -299 -70 -45 22 -58 36 -82 82 -28 55 -29
56 -25 210 3 144 5 158 28 199 31 54 64 80 127 97 59 17 120 11 172 -16z
m-314 -665 c62 -45 130 -65 216 -65 75 0 132 17 199 60 33 21 59 30 89 30 154
0 251 -100 239 -246 -6 -65 -24 -87 -124 -154 -165 -108 -413 -147 -609 -95
-137 36 -305 139 -332 204 -32 77 9 206 80 250 33 20 130 48 172 50 11 1 42
-15 70 -34z"/>
<path d="M2120 4180 c-41 -41 -14 -110 43 -110 30 0 67 35 67 62 0 25 -44 68
-70 68 -11 0 -29 -9 -40 -20z"/>
<path d="M4053 3880 c-30 -12 -43 -41 -43 -97 0 -28 -7 -58 -16 -71 -17 -25
-176 -122 -200 -122 -8 0 -42 14 -73 32 -83 46 -91 40 -189 -129 -118 -203
-131 -230 -125 -254 3 -12 30 -36 59 -55 29 -19 58 -43 64 -53 12 -23 12 -196
1 -226 -4 -11 -28 -31 -52 -46 -24 -14 -51 -37 -59 -52 -14 -26 -13 -31 22
-100 21 -39 69 -124 107 -187 82 -138 95 -146 171 -107 29 15 63 27 77 27 24
0 191 -92 205 -114 4 -6 8 -32 8 -57 0 -25 5 -60 11 -77 13 -38 17 -39 247
-48 234 -8 239 -6 251 121 5 54 9 62 39 80 18 11 59 37 91 58 68 43 101 46
156 12 47 -29 86 -32 107 -7 19 21 133 212 178 299 40 76 36 99 -21 133 -82
49 -81 48 -77 177 l3 115 32 26 c18 15 46 38 63 51 26 20 31 29 26 52 -9 45
-188 350 -219 373 l-28 21 -62 -33 c-35 -17 -69 -32 -76 -32 -17 0 -185 96
-198 113 -6 6 -13 41 -17 77 -5 53 -11 69 -31 88 -25 21 -33 22 -218 21 -106
0 -202 -4 -214 -9z m320 -140 c5 -4 12 -32 16 -61 4 -30 10 -59 14 -65 3 -6
38 -23 78 -39 39 -15 100 -50 136 -76 98 -75 97 -74 175 -35 20 10 43 16 51
13 15 -6 107 -162 107 -183 0 -7 -12 -21 -26 -31 -15 -10 -39 -30 -54 -44 -27
-24 -28 -27 -18 -80 6 -31 8 -108 4 -181 l-6 -128 50 -36 c27 -20 50 -43 50
-52 -1 -10 -22 -53 -48 -97 -39 -65 -52 -80 -72 -80 -26 0 -27 3 -50 118 -16
79 -59 134 -138 173 -35 18 -66 35 -70 39 -4 3 -9 68 -12 143 -7 157 -18 191
-87 259 -107 104 -285 97 -386 -17 -61 -67 -70 -98 -75 -251 l-4 -136 -60 -29
c-33 -16 -77 -47 -98 -70 -36 -40 -45 -60 -70 -159 -6 -28 -19 -46 -39 -58
-53 -31 -65 -24 -120 71 -28 48 -51 93 -51 100 0 7 22 26 49 42 55 34 64 56
51 115 -12 50 -12 165 -1 224 12 58 2 81 -48 114 -29 20 -41 34 -41 52 0 26
85 174 104 181 7 3 36 -6 65 -20 61 -28 67 -27 137 25 28 20 88 56 135 79 110
55 119 64 119 115 0 46 15 71 45 77 31 6 179 -3 188 -12z m-24 -528 c64 -32
76 -60 76 -181 0 -120 -11 -148 -66 -177 -42 -21 -111 -21 -144 0 -50 33 -65
72 -65 171 0 105 16 147 69 182 41 27 84 29 130 5z m-189 -482 c37 -20 59 -25
125 -25 68 0 88 4 133 28 29 15 67 28 85 29 48 2 104 -20 126 -48 28 -36 37
-108 18 -138 -15 -22 -165 -116 -186 -116 -5 0 -23 -12 -40 -26 -26 -21 -31
-33 -31 -69 0 -76 1 -75 -121 -75 -97 0 -109 2 -119 19 -5 11 -10 30 -10 43 0
46 -34 83 -115 122 -44 20 -85 45 -92 54 -15 21 -17 94 -2 145 12 43 39 64
106 81 52 14 55 13 123 -24z"/>
<path d="M2899 2147 c-58 -24 -145 -63 -195 -88 -105 -52 -109 -62 -70 -162
14 -35 26 -67 26 -71 0 -19 -135 -146 -154 -146 -12 0 -48 10 -81 22 -86 30
-107 23 -143 -55 -16 -34 -53 -121 -82 -193 -67 -167 -66 -171 38 -221 l77
-38 0 -105 0 -105 -70 -37 c-96 -50 -101 -60 -75 -137 36 -101 128 -312 146
-332 23 -25 42 -24 116 6 34 14 69 25 77 25 24 0 151 -132 151 -157 0 -11 -11
-51 -25 -87 -38 -101 -45 -95 246 -212 164 -66 173 -64 214 30 43 95 44 96
150 96 107 0 106 1 153 -102 42 -91 42 -91 247 -8 181 74 201 85 221 114 14
23 13 29 -10 88 -38 94 -36 104 37 176 71 70 86 74 167 42 68 -27 96 -26 116
5 37 56 155 359 152 390 -3 27 -11 34 -77 67 -40 20 -78 42 -82 50 -10 15 -12
168 -3 193 4 9 40 32 80 51 83 39 94 58 74 121 -26 79 -134 319 -153 341 -26
28 -41 28 -123 -3 -37 -14 -75 -23 -84 -20 -25 8 -140 130 -140 149 0 9 12 45
26 80 14 36 24 73 22 83 -5 28 -55 55 -232 128 -121 49 -172 66 -191 61 -20
-5 -34 -24 -63 -84 l-37 -77 -109 0 -110 0 -23 60 c-23 58 -62 105 -86 105 -7
0 -59 -20 -118 -43z m708 -158 c109 -43 108 -40 76 -130 l-27 -76 132 -131
c72 -73 139 -132 148 -132 9 0 43 12 76 27 51 22 61 24 73 12 21 -21 85 -177
79 -192 -3 -8 -36 -27 -74 -44 l-69 -31 -3 -173 c-2 -96 -1 -182 1 -193 3 -12
31 -31 77 -52 43 -19 74 -40 74 -48 0 -8 -14 -51 -32 -96 -33 -84 -50 -99
-101 -87 -152 38 -152 38 -186 111 -43 89 -112 150 -202 177 -38 12 -70 26
-70 32 -1 7 -2 89 -3 182 -1 152 -4 176 -24 228 -30 73 -99 144 -177 182 -116
57 -266 35 -366 -53 -88 -77 -123 -207 -117 -431 l3 -113 -67 -23 c-108 -37
-151 -75 -207 -186 l-36 -72 -80 -24 c-44 -13 -87 -25 -95 -26 -15 -2 -82 121
-96 176 -6 25 -2 29 59 56 35 16 69 35 73 43 5 7 9 92 10 188 2 200 3 196 -82
230 -70 29 -74 45 -34 140 43 103 47 104 132 73 86 -32 75 -38 227 119 125
130 123 123 85 221 -18 46 -18 47 1 66 24 24 139 71 172 71 20 0 29 -11 52
-64 16 -34 36 -66 46 -70 27 -10 344 -7 364 4 16 8 29 32 62 118 11 29 33 28
126 -9z m-306 -540 c51 -17 97 -55 119 -99 17 -34 20 -59 20 -186 0 -176 -14
-218 -86 -264 -110 -70 -238 -35 -296 79 -26 51 -28 63 -28 176 0 67 5 137 11
156 19 56 59 100 113 125 56 26 96 30 147 13z m-266 -644 c57 -44 140 -68 220
-63 68 5 108 19 198 69 36 21 43 21 108 10 119 -22 173 -76 184 -186 10 -86 0
-132 -36 -167 -48 -49 -49 -55 -21 -135 17 -48 22 -77 16 -83 -6 -6 -48 -25
-94 -44 -99 -41 -110 -38 -144 37 -12 29 -29 57 -37 64 -22 18 -351 12 -374
-7 -10 -8 -29 -41 -43 -72 -17 -40 -30 -58 -43 -58 -31 0 -181 63 -187 79 -3
8 4 42 16 75 12 34 22 68 22 76 0 9 -18 33 -40 54 -48 45 -54 65 -48 161 8
117 45 163 159 195 86 25 105 24 144 -5z"/>
</g>
</svg>
