<svg version="1.0" xmlns="http://www.w3.org/2000/svg"
 width="52px" height="52px" viewBox="0 0 513.000000 475.000000"
 preserveAspectRatio="xMidYMid meet">

<g transform="translate(0.000000,475.000000) scale(0.100000,-0.100000)"
fill="#0052FF" stroke="none">
<path d="M2190 4672 c-19 -9 -354 -237 -745 -506 -1072 -739 -1169 -806 -1187
-830 -15 -18 -18 -47 -18 -223 l0 -202 26 -20 c22 -18 41 -21 114 -21 l88 0 3
-121 c4 -118 5 -121 32 -145 l28 -24 -8 -826 -8 -827 -48 -12 c-75 -19 -81
-30 -87 -148 l-5 -102 -45 -3 c-29 -2 -53 -11 -67 -24 -22 -20 -23 -30 -23
-149 l0 -128 -82 0 c-74 0 -84 -2 -106 -25 -23 -23 -26 -34 -30 -135 -2 -60
-1 -130 2 -155 l7 -46 2182 2 2182 3 79 34 c302 130 553 427 636 752 17 64 20
111 20 277 0 182 -2 209 -26 298 -98 380 -420 701 -802 801 -74 19 -132 26
-244 30 l-148 6 0 194 c0 165 2 195 15 200 33 12 45 59 45 168 l0 105 100 0
c94 0 103 2 125 25 25 24 25 26 25 214 0 120 -4 199 -11 215 -7 15 -97 84
-228 174 -182 126 -1535 1056 -1685 1159 -56 38 -60 39 -106 15z m328 -355
c152 -106 522 -362 821 -568 l544 -374 -826 -3 c-454 -1 -1200 -1 -1659 0
l-833 3 825 567 c454 312 831 567 838 568 7 0 138 -87 290 -193z m1542 -1196
l0 -90 -42 -6 c-24 -3 -843 -5 -1821 -3 -1747 3 -1779 3 -1793 22 -9 13 -14
46 -14 93 l0 73 1835 0 1835 0 0 -89z m-2150 -379 c5 -122 5 -124 34 -147 l28
-23 -11 -773 c-6 -426 -11 -798 -11 -826 0 -50 -1 -53 -25 -53 -43 0 -94 -27
-100 -52 -2 -13 -8 -63 -12 -113 l-8 -90 -285 -3 c-157 -1 -295 0 -307 3 -22
5 -23 10 -23 101 0 52 -4 104 -10 114 -10 19 -59 40 -96 40 -13 0 -25 7 -28
18 -4 13 -22 1372 -21 1588 0 45 4 55 33 82 l32 30 0 116 0 116 403 -2 402 -3
5 -123z m468 61 l3 -63 -161 0 -160 0 0 59 c0 38 4 61 13 65 6 2 77 4 157 3
l145 -2 3 -62z m962 -44 c0 -113 8 -143 42 -167 17 -12 18 -31 17 -250 -1
-326 1 -317 -79 -383 -144 -119 -245 -243 -320 -394 -125 -253 -150 -513 -75
-793 14 -51 25 -98 25 -103 0 -5 -68 -9 -159 -9 l-159 0 -4 105 c-4 124 -16
144 -92 152 l-46 6 -1 136 c0 75 -4 447 -8 826 l-7 690 30 26 c30 26 30 27 34
147 l4 122 399 0 399 0 0 -111z m-2400 31 l0 -50 -155 0 -155 0 0 50 0 50 155
0 155 0 0 -50z m2870 0 l0 -50 -155 0 -155 0 0 50 0 50 155 0 155 0 0 -50z
m-2926 -467 c3 -142 9 -516 12 -830 l7 -573 -117 0 -116 0 0 48 c0 186 22
1590 25 1600 3 8 31 12 93 12 l89 0 7 -257z m1440 -450 c3 -390 9 -763 12
-831 l6 -122 -122 0 -122 0 6 142 c3 79 8 402 11 718 3 316 8 626 11 688 l6
112 93 0 92 0 7 -707z m1428 510 c2 -125 0 -202 -7 -210 -5 -6 -41 -21 -80
-32 -38 -12 -78 -24 -87 -27 -17 -5 -18 10 -18 230 l0 236 94 0 94 0 4 -197z
m467 -360 c382 -76 687 -396 756 -790 54 -310 -59 -657 -281 -863 -289 -269
-705 -349 -1048 -202 -310 133 -528 396 -592 711 -23 117 -15 344 16 451 47
163 156 338 280 454 239 221 542 304 869 239z m-3179 -1282 c0 -10 -8 -28 -17
-40 -18 -21 -23 -21 -253 -19 l-235 3 -3 38 -3 37 255 0 c244 0 256 -1 256
-19z m1430 -31 l0 -50 -247 2 -248 3 -3 48 -3 47 250 0 251 0 0 -50z m555
-214 c21 -9 42 -29 54 -53 12 -21 28 -48 37 -60 l16 -23 -1351 0 c-1338 0
-1351 0 -1371 20 -14 14 -20 33 -20 68 0 27 3 52 7 55 3 4 588 7 1300 7 1097
0 1299 -2 1328 -14z m330 -341 l79 -55 -1627 0 -1627 0 0 55 0 55 1548 0 1548
0 79 -55z"/>
<path d="M3830 1767 c-39 -19 -50 -53 -50 -153 l0 -91 -38 -25 c-67 -45 -142
-130 -178 -203 -108 -221 -42 -493 154 -635 l62 -45 0 -96 c0 -82 3 -100 21
-123 16 -20 29 -26 58 -26 57 0 75 26 79 116 l4 74 74 0 74 0 0 -73 c0 -88 19
-117 75 -117 60 0 75 26 75 128 0 48 4 92 8 98 4 6 35 29 69 52 90 61 105 101
57 149 -33 32 -61 27 -143 -26 -76 -49 -143 -65 -232 -58 -129 11 -243 90
-297 205 -24 50 -27 69 -27 157 0 84 4 107 24 147 61 124 176 200 313 207 92
4 142 -11 240 -70 62 -38 71 -40 97 -29 17 7 35 25 42 42 18 43 0 70 -81 128
l-65 46 -5 96 c-3 56 -10 101 -18 111 -29 34 -88 28 -119 -12 -7 -9 -13 -46
-13 -83 l0 -68 -74 0 -74 0 -4 70 c-3 53 -8 75 -23 89 -28 27 -56 33 -85 18z"/>
</g>
</svg>
