<svg width="52" height="52" viewBox="0 0 27 27" fill="none" xmlns="http://www.w3.org/2000/svg">
<path d="M3.02306 11.0566C2.87496 11.0566 2.72685 11.0566 2.5831 11.0566C2.3348 11.0655 2.16056 11.2435 2.15184 11.4881C2.14313 11.7194 2.2956 11.9195 2.52647 11.9329C2.84882 11.9462 3.17117 11.9507 3.48916 11.9329C3.72439 11.924 3.88993 11.7149 3.87686 11.4792C3.86814 11.2346 3.68954 11.0611 3.4456 11.0566C3.30621 11.0566 3.16681 11.0566 3.02306 11.0566Z" fill="#0052FF"/>
<path d="M11.2082 11.0572H10.9904C10.7856 11.0572 10.5765 11.0572 10.3718 11.0572C9.81421 11.0572 9.25663 11.0572 8.69905 11.0572H7.87139C7.7015 11.0572 7.53161 11.0572 7.36173 11.0572H6.84335C6.66475 11.0572 6.48615 11.0572 6.30755 11.0572H5.29258C5.25338 11.0572 5.21853 11.0572 5.17932 11.0572C4.93103 11.0794 4.77856 11.244 4.77856 11.4975C4.77856 11.7422 4.92667 11.9112 5.17061 11.9379C5.24467 11.9468 5.32308 11.9468 5.39713 11.9468C5.40584 11.9468 5.41891 11.9468 5.42762 11.9468C5.61493 11.9468 5.8066 11.9468 5.99391 11.9468C6.15945 11.9468 6.32933 11.9468 6.49486 11.9468C6.6604 11.9468 6.82593 11.9468 6.99146 11.9468C7.1657 11.9468 7.33559 11.9468 7.50983 11.9468H7.53161C7.69715 11.9468 7.86703 11.9468 8.03257 11.9468C8.21117 11.9468 8.38977 11.9468 8.56836 11.9468C8.83844 11.9468 9.10852 11.9468 9.3786 11.9468C9.79678 11.9468 10.2193 11.9468 10.6375 11.9468C11.1036 11.9468 11.5654 11.9468 12.0315 11.9468C12.1099 11.9468 12.1883 11.9468 12.2667 11.9334C12.4322 11.9156 12.5498 11.8267 12.6021 11.6888C12.6239 11.6399 12.637 11.582 12.637 11.5242C12.6457 11.244 12.4496 11.0527 12.1534 11.0527C11.8398 11.0527 11.5262 11.0527 11.2125 11.0527L11.2082 11.0572Z" fill="#0052FF"/>
<path d="M13.0901 24.9161C10.3893 24.9161 7.6885 24.9161 4.98773 24.9161C4.88754 24.9161 4.78735 24.9161 4.69151 24.9161C4.5042 24.9161 4.33431 24.8805 4.18185 24.8182C4.16442 24.8093 4.14264 24.8004 4.12522 24.7915C3.97711 24.7159 3.84643 24.6092 3.73753 24.4891C3.66347 24.4046 3.59813 24.3067 3.54586 24.2C3.44131 23.9998 3.40211 23.7596 3.35419 23.5328C3.21044 22.8345 3.0754 22.1317 2.94036 21.4289C2.77919 20.6061 2.62672 19.7876 2.46555 18.9648C2.33487 18.2976 2.19983 17.6349 2.06914 16.9677C1.92539 16.2338 1.786 15.4954 1.64225 14.7615C1.46365 13.8497 1.28505 12.9379 1.10645 12.0216C1.02804 11.6257 0.940916 11.2343 0.866862 10.8385C0.85815 10.7851 0.845082 10.7273 0.840726 10.6739C0.840726 10.6428 0.840726 10.6161 0.840726 10.5849C0.840726 10.496 0.866863 10.407 0.932204 10.3225C1.0019 10.2424 1.08467 10.1935 1.17615 10.1668C1.20228 10.1624 1.23277 10.1579 1.26327 10.1535C1.26327 10.1535 1.26762 10.1535 1.27198 10.1535C1.32425 10.1535 1.37653 10.1535 1.42444 10.149C1.51592 10.149 1.6074 10.149 1.69888 10.149C1.74679 10.149 1.79471 10.149 1.84263 10.149C3.11025 10.149 4.37352 10.149 5.64114 10.149C5.97656 10.149 6.31633 10.149 6.65175 10.149H8.26351C9.09117 10.149 9.92318 10.149 10.7508 10.149H15.6514C15.9215 10.149 16.1916 10.149 16.4617 10.149H19.0492C19.2278 10.149 19.402 10.149 19.5806 10.149H23.0045C23.4619 10.149 23.9193 10.149 24.3767 10.149C24.4246 10.149 24.4725 10.149 24.5204 10.149C24.6119 10.149 24.7034 10.149 24.7949 10.149C24.8472 10.149 24.8994 10.149 24.9473 10.1535C24.9473 10.1535 24.9517 10.1535 24.9561 10.1535C24.9866 10.1535 25.017 10.1624 25.0432 10.1668C25.1347 10.1891 25.2174 10.238 25.2871 10.3225C25.3568 10.4026 25.3786 10.4915 25.3786 10.5849C25.3786 10.6116 25.3786 10.6428 25.3786 10.6739C25.3742 10.7273 25.3612 10.7851 25.3525 10.8385C25.2784 11.2343 25.1913 11.6257 25.1129 12.0216C24.9343 12.9334 24.7557 13.8452 24.5771 14.7615C24.4638 15.3397 24.3767 15.7801 24.2634 16.3628C24.5466 16.5229 24.7862 16.8565 25.017 17.0833C25.0824 16.7586 25.1434 16.4384 25.2087 16.1137C25.3438 15.4154 25.4831 14.717 25.6182 14.0232C25.7532 13.3248 25.8926 12.631 26.0277 11.9326C26.0886 11.608 26.1583 11.2833 26.2106 10.9586C26.2367 10.8251 26.2542 10.6961 26.2498 10.5582C26.2498 10.5182 26.2455 10.4782 26.2411 10.4382C26.2411 10.4382 26.2411 10.4337 26.2411 10.4293C26.1932 10.0512 25.9667 9.6998 25.64 9.49075C25.6313 9.4863 25.6225 9.48185 25.6095 9.47296C25.5746 9.45072 25.5398 9.42848 25.5006 9.41068C25.4875 9.40624 25.4788 9.40179 25.4657 9.39734C25.4265 9.37955 25.383 9.36621 25.3394 9.34841C25.3176 9.33952 25.2915 9.33062 25.2697 9.32617C25.2261 9.31283 25.1782 9.30394 25.1347 9.29949C25.0911 9.29059 25.0475 9.28614 25.004 9.2817C24.9996 9.2817 24.9909 9.2817 24.9866 9.2817C24.9822 9.2817 24.9778 9.2817 24.9735 9.2817C24.8689 9.2728 24.76 9.2728 24.6555 9.2728C24.5204 9.27725 24.5204 9.2728 24.5204 9.13936C24.5204 8.3165 24.5292 7.48919 24.5204 6.66633C24.5074 5.8746 24.1545 5.28303 23.4358 4.94944C23.1831 4.83379 22.913 4.79376 22.6343 4.79376C22.5602 4.79376 22.3076 4.79376 21.9155 4.79376C21.3841 4.79376 20.4344 4.79376 19.2365 4.79376C19.1755 4.41569 19.1145 4.03762 19.0536 3.65954C19.0448 3.61506 19.0361 3.57059 19.0231 3.53055C18.9926 3.4238 18.949 3.3304 18.8837 3.25034C18.8837 3.25034 18.8837 3.25034 18.8793 3.24589C18.8619 3.22365 18.8401 3.19696 18.8183 3.17917C18.814 3.17472 18.8053 3.17027 18.8009 3.16138C18.7791 3.14359 18.7617 3.12579 18.7399 3.108C18.7356 3.108 18.7268 3.09911 18.7225 3.09466C18.6964 3.07687 18.6702 3.05908 18.6441 3.04573C18.6441 3.04573 18.6441 3.04573 18.6397 3.04573C18.6223 3.03684 18.6005 3.02349 18.5787 3.0146C18.4873 2.97012 18.3914 2.93453 18.2956 2.8945C17.0323 2.40079 15.7691 1.90707 14.5058 1.41335C13.9526 1.1954 13.3993 0.981904 12.8461 0.763956C12.6588 0.688342 12.4671 0.617176 12.2798 0.541561C12.1404 0.488186 12.0097 0.470395 11.8834 0.483738C11.8704 0.483738 11.8573 0.483738 11.8486 0.483738C11.8355 0.483738 11.8268 0.488186 11.8137 0.492634C11.6918 0.519322 11.5698 0.581592 11.4565 0.674998C11.2997 0.808436 11.1429 0.941873 10.9904 1.07086C10.5374 1.45783 10.08 1.8448 9.62697 2.23177C8.62506 3.08132 7.62316 3.93531 6.62562 4.78486C4.90496 4.78486 3.72446 4.78486 3.61556 4.78486C3.33677 4.78486 3.06669 4.82489 2.81404 4.94054C2.09528 5.27413 1.74244 5.86126 1.72937 6.65743C1.7163 7.48029 1.72937 8.3076 1.72937 9.13047C1.72937 9.26835 1.72937 9.26835 1.59433 9.2639C1.48543 9.2639 1.38088 9.2639 1.27634 9.2728C1.27198 9.2728 1.26762 9.2728 1.26327 9.2728C1.25891 9.2728 1.2502 9.2728 1.24584 9.2728C1.20228 9.2728 1.15872 9.2817 1.11516 9.29059C1.06724 9.29949 1.02368 9.30838 0.980121 9.31728C0.95834 9.32173 0.932204 9.33062 0.910424 9.33952C0.866863 9.35286 0.823302 9.37065 0.784097 9.38845C0.771028 9.39289 0.762316 9.39734 0.749248 9.40179C0.710043 9.41958 0.67955 9.44182 0.640346 9.46406C0.631633 9.46851 0.622921 9.47296 0.609853 9.48185C0.287502 9.6909 0.0609853 10.0378 0.00871218 10.4204C0.00871218 10.4204 0.00871218 10.4248 0.00871218 10.4293C0.00435609 10.4693 0 10.5093 0 10.5493C0 10.6872 0.0174244 10.8162 0.0392048 10.9497C0.091478 11.2744 0.156819 11.5991 0.222161 11.9238C0.3572 12.6221 0.492238 13.3204 0.631633 14.0143C0.766672 14.7126 0.906067 15.4109 1.04111 16.1048C1.1805 16.8076 1.31554 17.5059 1.45494 18.2086C1.58997 18.907 1.72937 19.6053 1.86441 20.2992C2.0038 21.0019 2.13884 21.7002 2.27824 22.403C2.36971 22.8789 2.46119 23.3549 2.55703 23.8308C2.64415 24.28 2.79661 24.6937 3.10154 25.0406C3.1843 25.1385 3.27578 25.2185 3.36726 25.2942C3.37597 25.2986 3.38033 25.3075 3.38904 25.3119C3.44131 25.3564 3.49359 25.392 3.55022 25.432C3.572 25.4454 3.58942 25.4587 3.6112 25.4721C3.66347 25.5032 3.71575 25.5343 3.76802 25.561C3.78544 25.5699 3.80287 25.5788 3.82029 25.5877C4.13393 25.7345 4.47806 25.8101 4.85269 25.8101C7.61445 25.8101 10.3719 25.8101 13.1336 25.8101C14.7323 25.8101 16.331 25.8101 17.9253 25.8101C17.9253 25.5121 17.9253 25.2141 17.9253 24.9116C16.3266 24.9116 14.7323 24.9116 13.1336 24.9116L13.0901 24.9161ZM11.5001 8.61896C11.5524 8.53445 11.6133 8.45439 11.6743 8.37877C11.7005 8.34764 11.7222 8.3165 11.7484 8.28092C11.7702 8.24978 11.7963 8.23199 11.8311 8.22754C11.8573 8.22754 11.8834 8.22754 11.9139 8.23644C12.3103 8.38767 12.576 8.82801 12.5717 9.25946H11.3781C11.3433 9.02816 11.3825 8.81466 11.5044 8.61451L11.5001 8.61896ZM13.5431 9.2639H13.53H12.9812C12.9681 8.72126 12.7198 8.30316 12.2363 8.02739L12.1143 7.95622L12.1579 7.91174C12.1579 7.91174 12.1666 7.90284 12.1709 7.8984C12.1796 7.8895 12.1883 7.8806 12.2014 7.87171L12.3016 7.79609C12.5063 7.64042 12.7241 7.47585 12.9332 7.31572C12.9463 7.30683 12.9681 7.29793 12.9899 7.29348C13.016 7.28903 13.0465 7.29348 13.0683 7.29348C13.2512 7.35131 13.4429 7.41358 13.6956 7.49364C13.7565 7.51588 13.8219 7.53812 13.8829 7.56036C13.909 7.56925 14.0048 7.60484 14.0048 7.60484V7.64487L13.9961 7.65376C13.9961 7.65821 13.9961 7.676 13.9831 7.68934L13.9526 7.72493C13.5605 8.15193 13.456 8.6412 13.6389 9.17939C13.6476 9.21053 13.6651 9.23722 13.6781 9.2639H13.5518H13.5431ZM12.6675 5.70113C12.6675 5.70113 12.6937 5.69668 12.7024 5.69224C12.7851 5.69224 12.8679 5.69224 12.9507 5.69224C12.9681 5.69224 12.9855 5.69668 13.0073 5.70113C13.1336 5.74116 13.2382 5.82567 13.2948 5.94132C13.3514 6.05696 13.3601 6.1904 13.3122 6.31939C13.2425 6.51065 13.1118 6.64854 12.9724 6.78197C12.955 6.79976 12.9332 6.80421 12.9202 6.80866C12.894 6.80866 12.8679 6.80866 12.8505 6.80421C12.7067 6.74194 12.5238 6.65298 12.3931 6.49731C12.2973 6.38166 12.2798 6.21709 12.2798 6.21709C12.2537 5.97245 12.3931 5.78564 12.6675 5.70558V5.70113ZM15.1244 9.12157C15.1069 9.17495 15.0852 9.21943 15.059 9.2639H14.1442C13.8959 8.93476 13.8872 8.39656 14.1355 8.04518C14.1834 7.97846 14.2401 7.91174 14.3098 7.84502C14.3359 7.81833 14.3708 7.80944 14.3882 7.80944C14.41 7.80944 14.4361 7.80499 14.4622 7.81833C14.7192 7.95177 15.0242 8.15638 15.1331 8.54779C15.1374 8.56558 15.1418 8.58782 15.1505 8.61006L15.1592 8.6412C15.1853 8.83246 15.1766 8.98813 15.1287 9.12602L15.1244 9.12157ZM15.5077 9.2639C15.6122 9.03261 15.6297 8.76574 15.5469 8.43659C15.4816 8.19641 15.3334 7.9918 15.0634 7.77386C14.8456 7.60039 14.5886 7.45805 14.2488 7.32462C14.0702 7.25345 13.8829 7.18673 13.6999 7.12001C13.6128 7.08888 13.5257 7.05774 13.4385 7.02661C13.4255 7.02216 13.4081 7.01326 13.3993 7.00882L13.3471 6.98213L13.3819 6.9332C13.4124 6.89317 13.4429 6.85314 13.469 6.81311C13.5344 6.7286 13.591 6.64854 13.6433 6.56403C13.7783 6.32829 13.8001 6.05252 13.7043 5.81678C13.6868 5.7723 13.6607 5.73227 13.6346 5.69224C13.5257 5.51877 13.3558 5.38978 13.1467 5.33196C12.9812 5.28748 12.82 5.27413 12.6632 5.30082C12.4846 5.33196 12.3147 5.40757 12.1535 5.53211C12.0925 5.58104 12.0446 5.62997 12.001 5.68779C11.9139 5.80343 11.8616 5.93242 11.8486 6.08365C11.8181 6.41724 11.9531 6.69301 12.2406 6.90207C12.2973 6.9421 12.3582 6.98213 12.4192 7.01771C12.4497 7.0355 12.4802 7.05774 12.5107 7.07553L12.5717 7.11557L12.4018 7.249C12.3147 7.31572 12.2319 7.38244 12.1491 7.44916C11.8268 7.70269 11.5219 7.95622 11.2736 8.27647C11.0209 8.60117 10.9164 8.92586 10.9382 9.25946H8.09798L8.05442 8.98813C7.94551 8.3254 7.84097 7.66711 7.73207 7.00437C7.70593 6.84424 7.67979 6.68412 7.65366 6.51955C7.6493 6.49286 7.64494 6.46172 7.63623 6.43504C7.62316 6.35497 7.6101 6.27046 7.59703 6.1904C7.57089 6.03473 7.61445 5.93242 7.72771 5.83457C7.78434 5.78564 7.84097 5.73672 7.8976 5.68779C8.12411 5.49653 8.35063 5.30082 8.5815 5.10956C8.70783 5.00281 8.83416 4.89606 8.96484 4.78486C9.0781 4.69146 9.19136 4.59805 9.30026 4.5002C9.56162 4.2778 9.81863 4.05985 10.08 3.83746C10.1192 3.80632 10.1584 3.77074 10.1976 3.73961C10.2281 3.71292 10.2586 3.68623 10.2934 3.65954C10.6114 3.38822 10.9338 3.11245 11.2561 2.84113C11.4783 2.64987 11.7005 2.46306 11.9183 2.2718C11.9662 2.22732 12.0141 2.20508 12.0664 2.18729C12.0751 2.18729 12.0838 2.17839 12.0969 2.17839C12.1056 2.17839 12.1187 2.17839 12.1274 2.17839C12.1796 2.17839 12.2319 2.18284 12.2929 2.20953C12.5586 2.32072 12.8331 2.42747 13.1031 2.52978C13.4908 2.681 13.8829 2.83668 14.2706 2.98791C14.3098 3.00125 14.3446 3.01904 14.3838 3.03239C14.4317 3.05018 14.4753 3.06797 14.5232 3.08576C14.8369 3.2103 15.1548 3.33485 15.4685 3.45494C15.7603 3.56614 16.0522 3.68178 16.3397 3.79298C16.6838 3.92642 17.028 4.0643 17.3765 4.19774C17.5159 4.25111 17.5899 4.33562 17.6117 4.4913C17.6248 4.57581 17.6378 4.65587 17.6509 4.74038C17.6509 4.75818 17.6552 4.77152 17.6596 4.78931C17.6596 4.80265 17.6596 4.816 17.664 4.82934C17.6901 4.98947 17.7162 5.14959 17.7424 5.31416C17.7641 5.43871 17.7816 5.56769 17.8034 5.69224C17.8905 6.22598 17.9776 6.76418 18.0647 7.29793C18.1693 7.95177 18.2782 8.61006 18.3827 9.2639H15.5033H15.5077ZM22.3685 5.69224C22.6081 5.69224 22.7606 5.69224 22.8085 5.69224C23.0307 5.69224 23.2223 5.79454 23.3792 5.96356C23.5621 6.15482 23.6057 6.38611 23.6057 6.63964C23.6057 7.4625 23.6057 8.28981 23.6057 9.11268C23.6057 9.1616 23.6057 9.20608 23.6057 9.2639H22.4644C22.2988 9.2639 22.1333 9.2639 21.9678 9.2639C21.9111 9.2639 21.8502 9.2639 21.7935 9.2639C21.6193 9.2639 21.445 9.2639 21.2708 9.2639H19.9335C19.7418 8.07187 19.5458 6.88427 19.3541 5.69224H22.3685ZM6.63869 5.42091C6.89134 5.21186 7.13964 5.00281 7.38793 4.79376C7.39665 4.78486 7.40971 4.77597 7.41843 4.76707C8.63378 3.73516 9.84913 2.70324 11.0601 1.66688C11.2213 1.529 11.3781 1.39556 11.5349 1.25323C11.6003 1.19985 11.6613 1.14648 11.7266 1.08865C11.7832 1.03973 11.8399 1.00859 11.9008 0.999695C11.9618 0.9908 12.0228 0.999696 12.0925 1.02638C12.1709 1.05752 12.2493 1.08865 12.3234 1.11534C12.5151 1.1954 12.7111 1.27102 12.9027 1.34663C14.3795 1.92486 15.8562 2.50309 17.3285 3.07687C17.6422 3.20141 17.9602 3.31705 18.2738 3.43715C18.4176 3.49497 18.4873 3.58393 18.5134 3.7485C18.5221 3.79743 18.5308 3.8508 18.5395 3.89973C18.5482 3.9531 18.557 4.01093 18.5657 4.0643C18.6049 4.30449 18.6441 4.54468 18.6833 4.78486L18.6964 4.85603C18.7399 5.1318 18.7878 5.40757 18.8314 5.68334C18.9098 6.16371 18.9882 6.64409 19.0666 7.12446C19.1842 7.83613 19.2975 8.54779 19.4151 9.25501H18.9054C18.7138 8.06297 18.5178 6.87538 18.3261 5.68334C18.2782 5.38533 18.2303 5.08287 18.1823 4.78486C18.1649 4.66922 18.1431 4.55357 18.1257 4.43793C18.1083 4.33562 18.0821 4.24667 18.0429 4.1666C17.9602 3.96645 17.8077 3.82856 17.603 3.73961C17.4854 3.69068 17.3677 3.6462 17.2501 3.59727C16.1437 3.16138 15.0329 2.72993 13.9264 2.29404C13.4211 2.09833 12.9202 1.89817 12.4149 1.70691C12.3757 1.69357 12.3408 1.68023 12.3016 1.67133C12.2885 1.67133 12.2711 1.66688 12.258 1.66243C12.2406 1.66243 12.2232 1.65799 12.2101 1.65354C12.1883 1.65354 12.1666 1.65354 12.1448 1.65354C12.1317 1.65354 12.123 1.65354 12.1099 1.65354C12.0925 1.65354 12.0707 1.65354 12.0533 1.65799C12.0402 1.65799 12.0228 1.65799 12.0097 1.66243C11.9967 1.66243 11.9836 1.66688 11.9662 1.67133C11.9488 1.67133 11.9313 1.68023 11.9096 1.68467C11.9008 1.68467 11.8878 1.69357 11.8791 1.69802C11.8573 1.70691 11.8399 1.71136 11.8181 1.72026C11.805 1.72915 11.7876 1.73805 11.7745 1.74694C11.7615 1.75584 11.7484 1.76029 11.7353 1.76918C11.7048 1.79142 11.67 1.81366 11.6395 1.8359C11.2213 2.18284 10.8075 2.53422 10.3936 2.89006C9.6531 3.52166 8.91257 4.14881 8.17203 4.78042C8.00214 4.9272 7.8279 5.07398 7.65801 5.21631C7.56218 5.30082 7.46199 5.38088 7.37051 5.46539C7.30081 5.53211 7.24418 5.60328 7.19627 5.67889C7.13528 5.78119 7.09608 5.89239 7.08736 6.01249C7.07865 6.10144 7.07865 6.1993 7.09608 6.29715C7.25725 7.28014 7.41843 8.26312 7.57525 9.25056H7.06994C7.06558 9.21942 7.06123 9.18384 7.05252 9.15271C6.93054 8.39656 6.80857 7.64042 6.68225 6.88427C6.63869 6.62185 6.59513 6.35942 6.55592 6.097C6.54721 6.04362 6.53414 5.9858 6.52543 5.93242C6.51672 5.8835 6.508 5.83012 6.49929 5.78119C6.49494 5.74561 6.49058 5.71448 6.49058 5.68334C6.49058 5.57214 6.53414 5.48763 6.62562 5.40757L6.63869 5.42091ZM2.57881 9.11268C2.57881 8.28981 2.57881 7.4625 2.57881 6.63964C2.57881 6.39056 2.62672 6.15482 2.80532 5.96356C2.96214 5.79899 3.15381 5.69668 3.37597 5.69224C3.46745 5.69224 4.48242 5.69224 5.98963 5.69224C5.98963 5.70558 5.98963 5.71892 5.98963 5.73227C5.98963 5.77675 5.99398 5.81678 6.0027 5.86126C6.19001 6.99547 6.37296 8.12969 6.55592 9.2639H4.91367C4.73943 9.2639 4.56519 9.2639 4.39094 9.2639C4.33431 9.2639 4.27333 9.2639 4.2167 9.2639C3.97276 9.2639 3.72882 9.2639 3.48487 9.2639H2.58316H2.57445C2.57445 9.20608 2.57445 9.1616 2.57445 9.11268H2.57881Z" fill="#0052FF"/>
<path d="M26.4937 26.2946C25.4569 26.2902 24.4158 26.2902 23.3791 26.2902C21.7935 26.2902 20.2122 26.2902 18.6266 26.2946C18.6266 26.2368 18.6266 26.179 18.6266 26.1211C18.6266 25.7653 18.6266 25.4273 18.6919 25.107C19.0361 23.3812 20.3037 22.1492 22.0069 21.8956L22.3336 21.8423C22.4251 21.8289 22.73 21.8423 22.8302 21.8556L23.0088 21.8823C23.1177 21.8956 23.2266 21.909 23.3355 21.9357C24.9255 22.2959 25.9187 23.2656 26.3761 24.8935C26.4719 25.2316 26.5068 25.6052 26.498 26.1033C26.498 26.1701 26.498 26.2323 26.498 26.2991L26.4937 26.2946ZM22.3903 22.7096C21.1967 22.7452 19.9988 23.6748 19.6633 24.8268C19.6241 24.9647 19.6503 25.1159 19.733 25.236C19.8202 25.3517 19.9508 25.4228 20.0946 25.4228H25.017C25.152 25.4228 25.2783 25.3605 25.3655 25.2582C25.4526 25.1559 25.4874 25.0136 25.4613 24.8802C25.2478 23.7059 23.88 22.714 22.4774 22.714H22.3903V22.7096ZM22.351 20.9349C21.5408 20.7792 20.9832 20.3744 20.6347 19.7028C20.3952 19.2358 20.3298 18.7599 20.4344 18.2483C20.6478 17.2031 21.519 16.4736 22.5601 16.4736H22.6255C23.6797 16.5048 24.4507 17.172 24.6903 18.2617C24.8253 18.8755 24.7033 19.4582 24.3244 20.0008C23.9846 20.4856 23.5011 20.7881 22.791 20.9571C22.7126 20.9749 22.4382 20.9571 22.3467 20.9393L22.351 20.9349ZM22.5863 17.3276C21.8109 17.3276 21.2272 17.9103 21.2272 18.6842C21.2272 19.4448 21.8109 20.0453 22.5558 20.0453C22.9217 20.0453 23.2615 19.9074 23.5098 19.6583C23.7581 19.4048 23.8975 19.0623 23.8975 18.6887C23.8975 17.9236 23.3225 17.3276 22.5863 17.3276Z" fill="#0052FF"/>
</svg>
