 <svg version="1.0" xmlns="http://www.w3.org/2000/svg"
                width="52px" height="52px" viewBox="0 0 513.000000 415.000000"
                preserveAspectRatio="xMidYMid meet">

                <g transform="translate(0.000000,415.000000) scale(0.100000,-0.100000)"
                  fill="#0052FF" stroke="none">
                  <path d="M443 4135 c-141 -31 -276 -137 -336 -262 l-32 -68 0 -1725 0 -1725
22 -55 c50 -121 166 -226 302 -272 l66 -23 2125 -3 c1917 -2 2133 -1 2205 14
128 25 220 80 296 177 l39 49 0 1468 0 1468 -39 49 c-47 60 -98 102 -170 137
-92 47 -161 56 -448 56 l-261 0 -4 193 -3 192 -34 69 c-41 84 -134 180 -211
219 -119 59 -45 57 -1825 56 -1332 0 -1641 -3 -1692 -14z m3419 -198 c32 -16
73 -46 92 -69 56 -65 66 -109 66 -290 l0 -158 -1778 2 c-1677 3 -1779 4 -1815
21 -52 24 -115 83 -139 131 -25 49 -34 137 -19 192 23 87 105 165 199 190 37
10 387 12 1692 11 l1645 -2 57 -28z m-1247 -697 l2160 -5 50 -23 c60 -28 109
-73 138 -127 19 -36 22 -60 25 -217 l4 -178 -744 0 c-803 0 -818 -1 -934 -54
-63 -29 -165 -122 -201 -184 -36 -60 -63 -155 -63 -216 0 -203 149 -387 357
-441 48 -13 176 -15 820 -15 l764 0 -3 -702 c-3 -702 -3 -703 -25 -744 -27
-50 -82 -100 -142 -128 l-46 -21 -2140 0 c-2016 0 -2143 1 -2190 18 -68 23
-120 68 -153 131 l-27 51 -3 1461 -2 1461 97 -31 98 -31 2160 -5z m2375 -1005
l0 -275 -754 0 c-866 0 -822 -4 -913 86 -40 40 -55 64 -68 109 -43 147 43 301
192 341 37 10 216 13 796 13 l747 1 0 -275z"/>
                  <path d="M2129 2949 c-195 -28 -347 -167 -385 -350 -17 -84 -8 -167 28 -252
12 -28 17 -52 12 -56 -20 -18 -307 -223 -319 -227 -7 -3 -41 11 -76 30 -200
110 -439 73 -590 -92 -163 -178 -154 -429 21 -596 163 -156 416 -176 607 -49
46 30 55 33 71 21 10 -7 80 -62 156 -122 101 -82 135 -114 130 -125 -31 -68
-54 -154 -54 -201 -1 -169 94 -317 253 -395 102 -50 197 -63 301 -42 159 33
268 113 333 245 37 74 38 79 38 187 0 104 -2 114 -33 177 -39 79 -135 174
-214 211 -159 74 -346 59 -488 -39 l-50 -35 -155 126 -154 125 27 58 c24 51
27 68 27 168 0 109 -1 113 -37 183 l-36 71 165 119 165 119 44 -33 c205 -157
536 -100 674 115 203 316 -76 716 -461 659z m225 -127 c189 -89 257 -293 156
-469 l-30 -53 -65 66 -65 65 16 31 c11 22 15 48 12 89 -5 70 -37 117 -101 148
-164 79 -349 -88 -267 -241 l19 -37 -34 -21 c-19 -12 -44 -35 -56 -51 -11 -16
-24 -29 -30 -29 -5 0 -21 24 -36 53 -25 46 -28 63 -28 147 0 80 4 102 23 138
95 178 305 249 486 164z m-103 -231 c17 -18 29 -40 29 -56 0 -35 -50 -85 -85
-85 -33 0 -81 24 -89 45 -36 96 73 168 145 96z m46 -261 c40 -18 83 -68 83
-97 0 -7 -32 -22 -71 -34 -56 -17 -86 -20 -139 -16 -74 6 -170 42 -170 62 0
21 51 77 85 91 46 20 162 17 212 -6z m-985 -312 c118 -55 190 -160 196 -285 5
-81 -12 -144 -54 -205 l-26 -38 -47 49 c-25 26 -54 52 -64 58 -17 9 -17 12 3
57 72 162 -118 313 -282 223 -46 -25 -74 -63 -90 -121 -11 -41 -10 -51 10 -98
21 -49 21 -53 5 -62 -10 -5 -36 -27 -58 -49 -37 -36 -40 -38 -53 -20 -59 77
-76 225 -35 315 40 87 132 166 233 199 14 5 66 7 115 6 73 -2 100 -7 147 -29z
m-104 -244 c49 -56 10 -134 -68 -134 -101 0 -125 126 -30 163 28 11 75 -3 98
-29z m49 -261 c34 -16 79 -76 69 -92 -4 -5 -29 -17 -57 -26 -69 -23 -205 -16
-272 13 l-48 22 15 28 c21 41 61 64 125 72 70 8 126 2 168 -17z m1093 -285
c81 -38 134 -89 172 -166 29 -58 33 -76 32 -142 -1 -77 -15 -126 -57 -187
l-21 -31 -37 42 c-20 23 -48 47 -61 55 l-25 13 19 36 c58 115 -26 250 -162
260 -151 11 -256 -133 -191 -261 10 -20 15 -37 9 -37 -5 0 -32 -23 -60 -51
l-51 -51 -18 23 c-55 71 -75 209 -43 303 29 85 121 169 233 212 59 23 195 13
261 -18z m-94 -242 c21 -18 28 -32 28 -60 0 -52 -32 -81 -89 -81 -57 0 -89 29
-89 81 0 47 39 84 89 84 21 0 44 -9 61 -24z m53 -268 c24 -13 51 -36 60 -51
15 -27 15 -29 -4 -43 -54 -40 -204 -50 -293 -20 -29 10 -56 24 -58 31 -8 21
25 64 65 85 54 29 173 27 230 -2z"/>
                </g>
              </svg>